<svg xmlns="http://www.w3.org/2000/svg" viewBox="0 0 1160 510" role="img"><title>All 1680 monthly GISTEMP anomalies, 1880–2019, relative to 1951–1980.</title><g font-family="Arial, sans-serif"><text x="86.0000" y="35.0000" font-size="30" fill="#263248" text-anchor="start" font-weight="700">Global monthly temperature anomaly (°C)</text><text x="86.0000" y="75.0000" font-size="25" fill="#667085" text-anchor="start" font-weight="400">1880–2019 · reference average: 1951–1980</text><line x1="86.000000" y1="440.000000" x2="1100.000000" y2="440.000000" stroke="#d8dbe4" stroke-width="1.3" stroke-dasharray=""/><text x="72.0000" y="448.0000" font-size="24" fill="#667085" text-anchor="end" font-weight="400">-1.0</text><line x1="86.000000" y1="372.000000" x2="1100.000000" y2="372.000000" stroke="#d8dbe4" stroke-width="1.3" stroke-dasharray=""/><text x="72.0000" y="380.0000" font-size="24" fill="#667085" text-anchor="end" font-weight="400">-0.5</text><line x1="86.000000" y1="304.000000" x2="1100.000000" y2="304.000000" stroke="#667085" stroke-width="2" stroke-dasharray=""/><text x="72.0000" y="312.0000" font-size="24" fill="#667085" text-anchor="end" font-weight="400">0</text><line x1="86.000000" y1="236.000000" x2="1100.000000" y2="236.000000" stroke="#d8dbe4" stroke-width="1.3" stroke-dasharray=""/><text x="72.0000" y="244.0000" font-size="24" fill="#667085" text-anchor="end" font-weight="400">+0.5</text><line x1="86.000000" y1="168.000000" x2="1100.000000" y2="168.000000" stroke="#d8dbe4" stroke-width="1.3" stroke-dasharray=""/><text x="72.0000" y="176.0000" font-size="24" fill="#667085" text-anchor="end" font-weight="400">+1.0</text><line x1="86.000000" y1="100.000000" x2="1100.000000" y2="100.000000" stroke="#d8dbe4" stroke-width="1.3" stroke-dasharray=""/><text x="72.0000" y="108.0000" font-size="24" fill="#667085" text-anchor="end" font-weight="400">+1.5</text><text x="86.0000" y="481.0000" font-size="25" fill="#667085" text-anchor="middle" font-weight="400">1880</text><text x="375.8868" y="481.0000" font-size="25" fill="#667085" text-anchor="middle" font-weight="400">1920</text><text x="665.7737" y="481.0000" font-size="25" fill="#667085" text-anchor="middle" font-weight="400">1960</text><text x="955.6605" y="481.0000" font-size="25" fill="#667085" text-anchor="middle" font-weight="400">2000</text><text x="1093.3568" y="481.0000" font-size="25" fill="#667085" text-anchor="middle" font-weight="400">2019</text><polyline data-observations="1680" points="86.000000,329.840000 86.603931,339.360000 87.207862,317.600000 87.811793,327.120000 88.415724,318.960000 89.019655,333.920000 89.623585,329.840000 90.227516,318.960000 90.831447,324.400000 91.435378,336.640000 92.039309,335.280000 92.643240,328.480000 93.247171,331.200000 93.851102,324.400000 94.455033,299.920000 95.058964,297.200000 95.662895,297.200000 96.266825,329.840000 96.870756,304.000000 97.474687,309.440000 98.078618,325.760000 98.682549,333.920000 99.286480,329.840000 99.890411,314.880000 100.494342,282.240000 101.098273,286.320000 101.702204,298.560000 102.306135,325.760000 102.910066,323.040000 103.513996,335.280000 104.117927,327.120000 104.721858,314.880000 105.325789,324.400000 105.929720,336.640000 106.533651,327.120000 107.137582,354.320000 107.741513,344.800000 108.345444,354.320000 108.949375,321.680000 109.553306,329.840000 110.157236,328.480000 110.761167,313.520000 111.365098,314.880000 111.969029,323.040000 112.572960,333.920000 113.176891,318.960000 113.780822,338.000000 114.384753,320.320000 114.988684,321.680000 115.592615,314.880000 116.196546,352.960000 116.800476,358.400000 117.404407,350.240000 118.008338,351.600000 118.612269,346.160000 119.216200,342.080000 119.820131,340.720000 120.424062,338.000000 121.027993,350.240000 121.631924,346.160000 122.235855,384.240000 122.839786,350.240000 123.443716,340.720000 124.047647,361.120000 124.651578,366.560000 125.255509,363.840000 125.859440,350.240000 126.463371,347.520000 127.067302,343.440000 127.671233,336.640000 128.275164,338.000000 128.879095,318.960000 129.483026,365.200000 130.086957,373.360000 130.690887,363.840000 131.294818,343.440000 131.898749,338.000000 132.502680,351.600000 133.106611,328.480000 133.710542,346.160000 134.314473,336.640000 134.918404,342.080000 135.522335,342.080000 136.126266,339.360000 136.730197,401.920000 137.334127,381.520000 137.938058,352.960000 138.541989,351.600000 139.145920,346.160000 139.749851,338.000000 140.353782,339.360000 140.957713,352.960000 141.561644,339.360000 142.165575,352.960000 142.769506,339.360000 143.373437,350.240000 143.977367,350.240000 144.581298,354.320000 145.185229,361.120000 145.789160,332.560000 146.393091,335.280000 146.997022,328.480000 147.600953,318.960000 148.204884,325.760000 148.808815,320.320000 149.412746,302.640000 150.016677,301.280000 150.620608,310.800000 151.224538,317.600000 151.828469,282.240000 152.432400,297.200000 153.036331,293.120000 153.640262,306.720000 154.244193,318.960000 154.848124,314.880000 155.452055,332.560000 156.055986,336.640000 156.659917,339.360000 157.263848,350.240000 157.867778,343.440000 158.471709,362.480000 159.075640,366.560000 159.679571,359.760000 160.283502,344.800000 160.887433,358.400000 161.491364,338.000000 162.095295,343.440000 162.699226,358.400000 163.303157,354.320000 163.907088,339.360000 164.511018,365.200000 165.114949,347.520000 165.718880,350.240000 166.322811,367.920000 166.926742,328.480000 167.530673,342.080000 168.134604,327.120000 168.738535,332.560000 169.342466,328.480000 169.946397,328.480000 170.550328,325.760000 171.154258,333.920000 171.758189,347.520000 172.362120,309.440000 172.966051,344.800000 173.569982,320.320000 174.173913,358.400000 174.777844,350.240000 175.381775,335.280000 175.985706,333.920000 176.589637,347.520000 177.193568,340.720000 177.797499,327.120000 178.401429,323.040000 179.005360,362.480000 179.609291,358.400000 180.213222,414.160000 180.817153,381.520000 181.421084,335.280000 182.025015,342.080000 182.628946,350.240000 183.232877,339.360000 183.836808,323.040000 184.440739,338.000000 185.044669,333.920000 185.648600,328.480000 186.252531,329.840000 186.856462,347.520000 187.460393,376.080000 188.064324,344.800000 188.668255,336.640000 189.272186,365.200000 189.876117,347.520000 190.480048,359.760000 191.083979,336.640000 191.687909,336.640000 192.291840,342.080000 192.895771,335.280000 193.499702,339.360000 194.103633,332.560000 194.707564,359.760000 195.311495,362.480000 195.915426,348.880000 196.519357,333.920000 197.123288,340.720000 197.727219,332.560000 198.331149,327.120000 198.935080,327.120000 199.539011,320.320000 200.142942,318.960000 200.746873,327.120000 201.350804,324.400000 201.954735,335.280000 202.558666,321.680000 203.162597,340.720000 203.766528,346.160000 204.370459,325.760000 204.974390,320.320000 205.578320,308.080000 206.182251,312.160000 206.786182,314.880000 207.390113,295.840000 207.994044,310.800000 208.597975,310.800000 209.201906,325.760000 209.805837,327.120000 210.409768,323.040000 211.013699,308.080000 211.617630,306.720000 212.221560,320.320000 212.825491,308.080000 213.429422,317.600000 214.033353,316.240000 214.637284,321.680000 215.241215,329.840000 215.845146,332.560000 216.449077,308.080000 217.053008,346.160000 217.656939,374.720000 218.260870,346.160000 218.864800,346.160000 219.468731,331.200000 220.072662,335.280000 220.676593,340.720000 221.280524,333.920000 221.884455,351.600000 222.488386,357.040000 223.092317,336.640000 223.696248,327.120000 224.300179,357.040000 224.904110,354.320000 225.508041,332.560000 226.111971,335.280000 226.715902,347.520000 227.319833,325.760000 227.923764,316.240000 228.527695,310.800000 229.131626,309.440000 229.735557,287.680000 230.339488,340.720000 230.943419,354.320000 231.547350,312.160000 232.151281,304.000000 232.755211,317.600000 233.359142,316.240000 233.963073,317.600000 234.567004,321.680000 235.170935,316.240000 235.774866,312.160000 236.378797,291.760000 236.982728,313.520000 237.586659,313.520000 238.190590,333.920000 238.794521,318.960000 239.398451,295.840000 240.002382,308.080000 240.606313,324.400000 241.210244,320.320000 241.814175,324.400000 242.418106,331.200000 243.022037,335.280000 243.625968,343.440000 244.229899,327.120000 244.833830,342.080000 245.437761,327.120000 246.041691,316.240000 246.645622,342.080000 247.249553,342.080000 247.853484,348.880000 248.457415,347.520000 249.061346,342.080000 249.665277,344.800000 250.269208,343.440000 250.873139,344.800000 251.477070,354.320000 252.081001,362.480000 252.684932,338.000000 253.288862,313.520000 253.892793,336.640000 254.496724,361.120000 255.100655,358.400000 255.704586,362.480000 256.308517,351.600000 256.912448,365.200000 257.516379,370.640000 258.120310,367.920000 258.724241,361.120000 259.328172,374.720000 259.932102,391.040000 260.536033,384.240000 261.139964,374.720000 261.743895,373.360000 262.347826,374.720000 262.951757,370.640000 263.555688,374.720000 264.159619,372.000000 264.763550,380.160000 265.367481,358.400000 265.971412,329.840000 266.575342,350.240000 267.179273,352.960000 267.783204,385.600000 268.387135,333.920000 268.991066,350.240000 269.594997,344.800000 270.198928,343.440000 270.802859,340.720000 271.406790,331.200000 272.010721,329.840000 272.614652,338.000000 273.218582,314.880000 273.822513,323.040000 274.426444,343.440000 275.030375,344.800000 275.634306,329.840000 276.238237,312.160000 276.842168,339.360000 277.446099,331.200000 278.050030,335.280000 278.653961,331.200000 279.257892,342.080000 279.861823,331.200000 280.465753,355.680000 281.069684,324.400000 281.673615,362.480000 282.277546,373.360000 282.881477,340.720000 283.485408,354.320000 284.089339,366.560000 284.693270,361.120000 285.297201,351.600000 285.901132,351.600000 286.505063,350.240000 287.108993,335.280000 287.712924,367.920000 288.316855,367.920000 288.920786,365.200000 289.524717,348.880000 290.128648,380.160000 290.732579,365.200000 291.336510,355.680000 291.940441,357.040000 292.544372,352.960000 293.148303,367.920000 293.752233,352.960000 294.356164,363.840000 294.960095,374.720000 295.564026,372.000000 296.167957,404.640000 296.771888,367.920000 297.375819,378.800000 297.979750,385.600000 298.583681,378.800000 299.187612,374.720000 299.791543,366.560000 300.395473,350.240000 300.999404,357.040000 301.603335,358.400000 302.207266,348.880000 302.811197,381.520000 303.415128,362.480000 304.019059,361.120000 304.622990,373.360000 305.226921,362.480000 305.830852,351.600000 306.434783,358.400000 307.038714,351.600000 307.642644,354.320000 308.246575,357.040000 308.850506,359.760000 309.454437,382.880000 310.058368,396.480000 310.662299,389.680000 311.266230,384.240000 311.870161,386.960000 312.474092,378.800000 313.078023,374.720000 313.681954,373.360000 314.285884,362.480000 314.889815,363.840000 315.493746,359.760000 316.097677,340.720000 316.701608,333.920000 317.305539,335.280000 317.909470,342.080000 318.513401,327.120000 319.117332,358.400000 319.721263,329.840000 320.325194,333.920000 320.929124,338.000000 321.533055,362.480000 322.136986,378.800000 322.740917,382.880000 323.344848,384.240000 323.948779,358.400000 324.552710,363.840000 325.156641,361.120000 325.760572,367.920000 326.364503,363.840000 326.968434,359.760000 327.572365,365.200000 328.176295,366.560000 328.780226,354.320000 329.384157,350.240000 329.988088,351.600000 330.592019,348.880000 331.195950,332.560000 331.799881,309.440000 332.403812,301.280000 333.007743,318.960000 333.611674,339.360000 334.215605,346.160000 334.819535,333.920000 335.423466,339.360000 336.027397,338.000000 336.631328,327.120000 337.235259,328.480000 337.839190,309.440000 338.443121,327.120000 339.047052,310.800000 339.650983,333.920000 340.254914,309.440000 340.858845,318.960000 341.462775,295.840000 342.066706,312.160000 342.670637,335.280000 343.274568,321.680000 343.878499,335.280000 344.482430,332.560000 345.086361,338.000000 345.690292,323.040000 346.294223,333.920000 346.898154,323.040000 347.502085,324.400000 348.106015,343.440000 348.709946,346.160000 349.313877,352.960000 349.917808,372.000000 350.521739,354.320000 351.125670,342.080000 351.729601,352.960000 352.333532,348.880000 352.937463,367.920000 353.541394,415.520000 354.145325,381.520000 354.749256,389.680000 355.353186,389.680000 355.957117,378.800000 356.561048,380.160000 357.164979,363.840000 357.768910,339.360000 358.372841,335.280000 358.976772,335.280000 359.580703,365.200000 360.184634,350.240000 360.788565,396.480000 361.392496,369.280000 361.996426,351.600000 362.600357,339.360000 363.204288,365.200000 363.808219,362.480000 364.412150,354.320000 365.016081,347.520000 365.620012,347.520000 366.223943,327.120000 366.827874,312.160000 367.431805,320.320000 368.035736,344.800000 368.639666,331.200000 369.243597,336.640000 369.847528,332.560000 370.451459,321.680000 371.055390,342.080000 371.659321,352.960000 372.263252,343.440000 372.867183,348.880000 373.471114,338.000000 374.075045,331.200000 374.678976,361.120000 375.282906,362.480000 375.886837,339.360000 376.490768,340.720000 377.094699,320.320000 377.698630,338.000000 378.302561,340.720000 378.906492,352.960000 379.510423,346.160000 380.114354,339.360000 380.718285,333.920000 381.322216,340.720000 381.926147,342.080000 382.530077,367.920000 383.134008,310.800000 383.737939,328.480000 384.341870,335.280000 384.945801,344.800000 385.549732,344.800000 386.153663,340.720000 386.757594,324.400000 387.361525,340.720000 387.965456,329.840000 388.569387,308.080000 389.173317,324.400000 389.777248,328.480000 390.381179,350.240000 390.985110,365.200000 391.589041,324.400000 392.192972,335.280000 392.796903,348.880000 393.400834,346.160000 394.004765,340.720000 394.608696,348.880000 395.212627,351.600000 395.816557,346.160000 396.420488,323.040000 397.024419,331.200000 397.628350,340.720000 398.232281,357.040000 398.836212,350.240000 399.440143,359.760000 400.044074,350.240000 400.648005,343.440000 401.251936,346.160000 401.855867,350.240000 402.459797,346.160000 403.063728,321.680000 403.667659,306.720000 404.271590,309.440000 404.875521,333.920000 405.479452,335.280000 406.083383,316.240000 406.687314,344.800000 407.291245,328.480000 407.895176,339.360000 408.499107,343.440000 409.103038,352.960000 409.706968,347.520000 410.310899,351.600000 410.914830,331.200000 411.518761,362.480000 412.122692,355.680000 412.726623,357.040000 413.330554,340.720000 413.934485,339.360000 414.538416,343.440000 415.142347,348.880000 415.746278,340.720000 416.350208,332.560000 416.954139,331.200000 417.558070,327.120000 418.162001,297.200000 418.765932,295.840000 419.369863,275.440000 419.973794,301.280000 420.577725,289.040000 421.181656,321.680000 421.785587,335.280000 422.389518,339.360000 422.993448,340.720000 423.597379,321.680000 424.201310,323.040000 424.805241,318.960000 425.409172,313.520000 426.013103,344.800000 426.617034,340.720000 427.220965,328.480000 427.824896,357.040000 428.428827,346.160000 429.032758,339.360000 429.636689,342.080000 430.240619,329.840000 430.844550,336.640000 431.448481,320.320000 432.052412,305.360000 432.656343,312.160000 433.260274,348.880000 433.864205,306.720000 434.468136,316.240000 435.072067,338.000000 435.675998,343.440000 436.279929,344.800000 436.883859,357.040000 437.487790,331.200000 438.091721,333.920000 438.695652,332.560000 439.299583,329.840000 439.903514,317.600000 440.507445,325.760000 441.111376,365.200000 441.715307,382.880000 442.319238,348.880000 442.923169,361.120000 443.527099,355.680000 444.131030,362.480000 444.734961,354.320000 445.338892,348.880000 445.942823,338.000000 446.546754,323.040000 447.150685,320.320000 447.754616,378.800000 448.358547,346.160000 448.962478,340.720000 449.566409,318.960000 450.170339,338.000000 450.774270,336.640000 451.378201,333.920000 451.982132,332.560000 452.586063,324.400000 453.189994,324.400000 453.793925,320.320000 454.397856,280.880000 455.001787,312.160000 455.605718,318.960000 456.209649,331.200000 456.813580,318.960000 457.417510,335.280000 458.021441,331.200000 458.625372,314.880000 459.229303,309.440000 459.833234,309.440000 460.437165,313.520000 461.041096,295.840000 461.645027,312.160000 462.248958,310.800000 462.852889,283.600000 463.456820,327.120000 464.060750,328.480000 464.664681,312.160000 465.268612,328.480000 465.872543,343.440000 466.476474,338.000000 467.080405,333.920000 467.684336,318.960000 468.288267,316.240000 468.892198,340.720000 469.496129,340.720000 470.100060,336.640000 470.703990,344.800000 471.307921,343.440000 471.911852,336.640000 472.515783,343.440000 473.119714,350.240000 473.723645,333.920000 474.327576,336.640000 474.931507,343.440000 475.535438,338.000000 476.139369,346.160000 476.743300,365.200000 477.347230,332.560000 477.951161,308.080000 478.555092,343.440000 479.159023,346.160000 479.762954,317.600000 480.366885,324.400000 480.970816,318.960000 481.574747,320.320000 482.178678,324.400000 482.782609,313.520000 483.386540,299.920000 483.990471,308.080000 484.594401,350.240000 485.198332,284.960000 485.802263,323.040000 486.406194,355.680000 487.010125,343.440000 487.614056,340.720000 488.217987,333.920000 488.821918,333.920000 489.425849,332.560000 490.029780,312.160000 490.633711,339.360000 491.237641,327.120000 491.841572,342.080000 492.445503,355.680000 493.049434,332.560000 493.653365,332.560000 494.257296,325.760000 494.861227,333.920000 495.465158,317.600000 496.069089,323.040000 496.673020,316.240000 497.276951,308.080000 497.880881,302.640000 498.484812,305.360000 499.088743,314.880000 499.692674,299.920000 500.296605,332.560000 500.900536,325.760000 501.504467,312.160000 502.108398,310.800000 502.712329,309.440000 503.316260,302.640000 503.920191,291.760000 504.524122,293.120000 505.128052,294.480000 505.731983,314.880000 506.335914,293.120000 506.939845,299.920000 507.543776,290.400000 508.147707,295.840000 508.751638,317.600000 509.355569,327.120000 509.959500,317.600000 510.563431,312.160000 511.167362,302.640000 511.771292,284.960000 512.375223,294.480000 512.979154,321.680000 513.583085,312.160000 514.187016,313.520000 514.790947,328.480000 515.394878,317.600000 515.998809,310.800000 516.602740,313.520000 517.206671,312.160000 517.810602,313.520000 518.414532,314.880000 519.018463,309.440000 519.622394,294.480000 520.226325,246.880000 520.830256,305.360000 521.434187,293.120000 522.038118,291.760000 522.642049,280.880000 523.245980,289.040000 523.849911,289.040000 524.453842,287.680000 525.057772,295.840000 525.661703,283.600000 526.265634,289.040000 526.869565,282.240000 527.473496,261.840000 528.077427,280.880000 528.681358,263.200000 529.285289,290.400000 529.889220,282.240000 530.493151,282.240000 531.097082,287.680000 531.701013,275.440000 532.304943,284.960000 532.908874,301.280000 533.512805,256.400000 534.116736,274.080000 534.720667,275.440000 535.324598,264.560000 535.928529,301.280000 536.532460,297.200000 537.136391,291.760000 537.740322,289.040000 538.344253,298.560000 538.948183,304.000000 539.552114,309.440000 540.156045,308.080000 540.759976,302.640000 541.363907,291.760000 541.967838,289.040000 542.571769,305.360000 543.175700,280.880000 543.779631,309.440000 544.383562,289.040000 544.987493,295.840000 545.591423,310.800000 546.195354,293.120000 546.799285,304.000000 547.403216,297.200000 548.007147,272.720000 548.611078,276.800000 549.215009,272.720000 549.818940,255.040000 550.422871,271.360000 551.026802,268.640000 551.630733,278.160000 552.234663,279.520000 552.838594,283.600000 553.442525,280.880000 554.046456,279.520000 554.650387,265.920000 555.254318,268.640000 555.858249,289.040000 556.462180,298.560000 557.066111,290.400000 557.670042,302.640000 558.273973,295.840000 558.877904,276.800000 559.481834,295.840000 560.085765,302.640000 560.689696,298.560000 561.293627,268.640000 561.897558,275.440000 562.501489,278.160000 563.105420,294.480000 563.709351,313.520000 564.313282,283.600000 564.917213,299.920000 565.521144,302.640000 566.125074,295.840000 566.729005,313.520000 567.332936,332.560000 567.936867,320.320000 568.540798,331.200000 569.144729,313.520000 569.748660,314.880000 570.352591,312.160000 570.956522,346.160000 571.560453,313.520000 572.164384,314.880000 572.768314,295.840000 573.372245,295.840000 573.976176,306.720000 574.580107,306.720000 575.184038,309.440000 575.787969,313.520000 576.391900,320.320000 576.995831,294.480000 577.599762,301.280000 578.203693,321.680000 578.807624,295.840000 579.411554,324.400000 580.015485,336.640000 580.619416,320.320000 581.223347,305.360000 581.827278,310.800000 582.431209,318.960000 583.035140,320.320000 583.639071,323.040000 584.243002,310.800000 584.846933,321.680000 585.450864,336.640000 586.054795,295.840000 586.658725,323.040000 587.262656,306.720000 587.866587,318.960000 588.470518,317.600000 589.074449,340.720000 589.678380,321.680000 590.282311,321.680000 590.886242,323.040000 591.490173,313.520000 592.094104,317.600000 592.698035,328.480000 593.301965,339.360000 593.905896,340.720000 594.509827,314.880000 595.113758,332.560000 595.717689,318.960000 596.321620,310.800000 596.925551,316.240000 597.529482,325.760000 598.133413,318.960000 598.737344,331.200000 599.341275,350.240000 599.945205,333.920000 600.549136,350.240000 601.153067,359.760000 601.756998,331.200000 602.360929,323.040000 602.964860,304.000000 603.568791,313.520000 604.172722,305.360000 604.776653,295.840000 605.380584,297.200000 605.984515,293.120000 606.588446,305.360000 607.192376,283.600000 607.796307,289.040000 608.400238,289.040000 609.004169,314.880000 609.608100,299.920000 610.212031,308.080000 610.815962,308.080000 611.419893,298.560000 612.023824,297.200000 612.627755,294.480000 613.231686,304.000000 613.835616,321.680000 614.439547,306.720000 615.043478,294.480000 615.647409,283.600000 616.251340,289.040000 616.855271,278.160000 617.459202,289.040000 618.063133,287.680000 618.667064,302.640000 619.270995,297.200000 619.874926,297.200000 620.478856,293.120000 621.082787,308.080000 621.686718,297.200000 622.290649,336.640000 622.894580,317.600000 623.498511,324.400000 624.102442,323.040000 624.706373,331.200000 625.310304,328.480000 625.914235,329.840000 626.518166,327.120000 627.122096,317.600000 627.726027,306.720000 628.329958,293.120000 628.933889,328.480000 629.537820,286.320000 630.141751,325.760000 630.745682,347.520000 631.349613,333.920000 631.953544,331.200000 632.557475,321.680000 633.161406,318.960000 633.765337,301.280000 634.369267,318.960000 634.973198,310.800000 635.577129,338.000000 636.181060,342.080000 636.784991,321.680000 637.388922,336.640000 637.992853,332.560000 638.596784,342.080000 639.200715,343.440000 639.804646,324.400000 640.408577,316.240000 641.012507,338.000000 641.616438,329.840000 642.220369,335.280000 642.824300,324.400000 643.428231,312.160000 644.032162,316.240000 644.636093,308.080000 645.240024,310.800000 645.843955,304.000000 646.447886,291.760000 647.051817,283.600000 647.655747,301.280000 648.259678,283.600000 648.863609,291.760000 649.467540,302.640000 650.071471,293.120000 650.675402,283.600000 651.279333,250.960000 651.883264,274.080000 652.487195,293.120000 653.091126,302.640000 653.695057,295.840000 654.298987,316.240000 654.902918,297.200000 655.506849,310.800000 656.110780,308.080000 656.714711,298.560000 657.318642,301.280000 657.922573,302.640000 658.526504,293.120000 659.130435,294.480000 659.734366,279.520000 660.338297,282.240000 660.942228,298.560000 661.546158,299.920000 662.150089,299.920000 662.754020,305.360000 663.357951,312.160000 663.961882,313.520000 664.565813,314.880000 665.169744,304.000000 665.773675,304.000000 666.377606,286.320000 666.981537,351.600000 667.585468,324.400000 668.189398,314.880000 668.793329,309.440000 669.397260,309.440000 670.001191,301.280000 670.605122,294.480000 671.209053,295.840000 671.812984,318.960000 672.416915,278.160000 673.020846,294.480000 673.624777,278.160000 674.228708,291.760000 674.832638,286.320000 675.436569,287.680000 676.040500,289.040000 676.644431,302.640000 677.248362,302.640000 677.852293,293.120000 678.456224,304.000000 679.060155,299.920000 679.664086,325.760000 680.268017,297.200000 680.871948,283.600000 681.475878,290.400000 682.079809,297.200000 682.683740,312.160000 683.287671,299.920000 683.891602,301.280000 684.495533,305.360000 685.099464,304.000000 685.703395,302.640000 686.307326,295.840000 686.911257,308.080000 687.515188,308.080000 688.119119,279.520000 688.723049,323.040000 689.326980,313.520000 689.930911,312.160000 690.534842,297.200000 691.138773,295.840000 691.742704,274.080000 692.346635,280.880000 692.950566,283.600000 693.554497,283.600000 694.158428,308.080000 694.762359,316.240000 695.366289,317.600000 695.970220,332.560000 696.574151,347.520000 697.178082,338.000000 697.782013,309.440000 698.385944,309.440000 698.989875,333.920000 699.593806,344.800000 700.197737,346.160000 700.801668,332.560000 701.405599,344.800000 702.009529,314.880000 702.613460,327.120000 703.217391,321.680000 703.821322,329.840000 704.425253,320.320000 705.029184,314.880000 705.633115,321.680000 706.237046,309.440000 706.840977,324.400000 707.444908,310.800000 708.048839,312.160000 708.652770,314.880000 709.256700,329.840000 709.860631,309.440000 710.464562,299.920000 711.068493,321.680000 711.672424,320.320000 712.276355,302.640000 712.880286,293.120000 713.484217,316.240000 714.088148,308.080000 714.692079,327.120000 715.296010,305.360000 715.899940,308.080000 716.503871,314.880000 717.107802,332.560000 717.711733,297.200000 718.315664,310.800000 718.919595,287.680000 719.523526,314.880000 720.127457,301.280000 720.731388,302.640000 721.335319,312.160000 721.939250,291.760000 722.543180,310.800000 723.147111,310.800000 723.751042,339.360000 724.354973,323.040000 724.958904,276.800000 725.562835,312.160000 726.166766,323.040000 726.770697,316.240000 727.374628,321.680000 727.978559,314.880000 728.582490,329.840000 729.186420,291.760000 729.790351,310.800000 730.394282,323.040000 730.998213,318.960000 731.602144,328.480000 732.206075,302.640000 732.810006,280.880000 733.413937,279.520000 734.017868,299.920000 734.621799,309.440000 735.225730,298.560000 735.829661,293.120000 736.433591,291.760000 737.037522,287.680000 737.641453,271.360000 738.245384,293.120000 738.849315,274.080000 739.453246,295.840000 740.057177,297.200000 740.661108,308.080000 741.265039,306.720000 741.868970,301.280000 742.472901,317.600000 743.076831,287.680000 743.680762,299.920000 744.284693,301.280000 744.888624,320.320000 745.492555,306.720000 746.096486,324.400000 746.700417,328.480000 747.304348,313.520000 747.908279,310.800000 748.512210,325.760000 749.116141,313.520000 749.720071,305.360000 750.324002,310.800000 750.927933,309.440000 751.531864,313.520000 752.135795,314.880000 752.739726,333.920000 753.343657,328.480000 753.947588,299.920000 754.551519,304.000000 755.155450,308.080000 755.759381,298.560000 756.363311,302.640000 756.967242,282.240000 757.571173,301.280000 758.175104,293.120000 758.779035,301.280000 759.382966,279.520000 759.986897,264.560000 760.590828,260.480000 761.194759,264.560000 761.798690,267.280000 762.402621,272.720000 763.006552,278.160000 763.610482,286.320000 764.214413,297.200000 764.818344,291.760000 765.422275,290.400000 766.026206,298.560000 766.630137,313.520000 767.234068,317.600000 767.837999,340.720000 768.441930,310.800000 769.045861,320.320000 769.649792,309.440000 770.253722,310.800000 770.857653,308.080000 771.461584,290.400000 772.065515,314.880000 772.669446,312.160000 773.273377,314.880000 773.877308,314.880000 774.481239,290.400000 775.085170,293.120000 775.689101,287.680000 776.293032,298.560000 776.896962,282.240000 777.500893,305.360000 778.104824,305.360000 778.708755,327.120000 779.312686,306.720000 779.916617,318.960000 780.520548,327.120000 781.124479,327.120000 781.728410,308.080000 782.332341,312.160000 782.936272,333.920000 783.540203,313.520000 784.144133,331.200000 784.748064,320.320000 785.351995,317.600000 785.955926,320.320000 786.559857,312.160000 787.163788,336.640000 787.767719,312.160000 788.371650,289.040000 788.975581,278.160000 789.579512,272.720000 790.183443,271.360000 790.787373,268.640000 791.391304,259.120000 791.995235,267.280000 792.599166,276.800000 793.203097,279.520000 793.807028,301.280000 794.410959,299.920000 795.014890,282.240000 795.618821,299.920000 796.222752,295.840000 796.826683,290.400000 797.430613,278.160000 798.034544,280.880000 798.638475,291.760000 799.242406,305.360000 799.846337,298.560000 800.450268,323.040000 801.054199,295.840000 801.658130,299.920000 802.262061,286.320000 802.865992,293.120000 803.469923,291.760000 804.073853,317.600000 804.677784,278.160000 805.281715,283.600000 805.885646,299.920000 806.489577,284.960000 807.093508,298.560000 807.697439,280.880000 808.301370,270.000000 808.905301,268.640000 809.509232,265.920000 810.113163,240.080000 810.717094,263.200000 811.321024,250.960000 811.924955,264.560000 812.528886,263.200000 813.132817,256.400000 813.736748,276.800000 814.340679,274.080000 814.944610,279.520000 815.548541,276.800000 816.152472,286.320000 816.756403,263.200000 817.360334,275.440000 817.964264,231.920000 818.568195,246.880000 819.172126,238.720000 819.776057,260.480000 820.379988,270.000000 820.983919,264.560000 821.587850,259.120000 822.191781,256.400000 822.795712,283.600000 823.399643,287.680000 824.003574,272.720000 824.607504,248.240000 825.211435,297.200000 825.815366,283.600000 826.419297,299.920000 827.023228,283.600000 827.627159,279.520000 828.231090,295.840000 828.835021,284.960000 829.438952,299.920000 830.042883,284.960000 830.646814,286.320000 831.250744,279.520000 831.854675,245.520000 832.458606,231.920000 833.062537,245.520000 833.666468,246.880000 834.270399,265.920000 834.874330,257.760000 835.478261,272.720000 836.082192,279.520000 836.686123,255.040000 837.290054,253.680000 837.893985,280.880000 838.497915,263.200000 839.101846,280.880000 839.705777,261.840000 840.309708,284.960000 840.913639,268.640000 841.517570,295.840000 842.121501,259.120000 842.725432,301.280000 843.329363,278.160000 843.933294,278.160000 844.537225,275.440000 845.141155,286.320000 845.745086,295.840000 846.349017,309.440000 846.952948,274.080000 847.556879,309.440000 848.160810,280.880000 848.764741,287.680000 849.368672,283.600000 849.972603,283.600000 850.576534,298.560000 851.180465,280.880000 851.784395,286.320000 852.388326,287.680000 852.992257,297.200000 853.596188,284.960000 854.200119,268.640000 854.804050,253.680000 855.407981,263.200000 856.011912,274.080000 856.615843,275.440000 857.219774,287.680000 857.823705,289.040000 858.427635,282.240000 859.031566,299.920000 859.635497,283.600000 860.239428,290.400000 860.843359,286.320000 861.447290,260.480000 862.051221,245.520000 862.655152,279.520000 863.259083,271.360000 863.863014,268.640000 864.466945,256.400000 865.070876,249.600000 865.674806,270.000000 866.278737,256.400000 866.882668,259.120000 867.486599,264.560000 868.090530,241.440000 868.694461,226.480000 869.298392,244.160000 869.902323,233.280000 870.506254,245.520000 871.110185,244.160000 871.714116,249.600000 872.318046,259.120000 872.921977,250.960000 873.525908,253.680000 874.129839,252.320000 874.733770,287.680000 875.337701,264.560000 875.941632,287.680000 876.545563,263.200000 877.149494,255.040000 877.753425,264.560000 878.357356,279.520000 878.961286,283.600000 879.565217,256.400000 880.169148,259.120000 880.773079,256.400000 881.377010,264.560000 881.980941,276.800000 882.584872,253.680000 883.188803,246.880000 883.792734,244.160000 884.396665,195.200000 885.000596,227.840000 885.604527,241.440000 886.208457,253.680000 886.812388,241.440000 887.416319,257.760000 888.020250,272.720000 888.624181,242.800000 889.228112,241.440000 889.832043,249.600000 890.435974,245.520000 891.039905,236.000000 891.643836,255.040000 892.247767,234.640000 892.851697,257.760000 893.455628,231.920000 894.059559,238.720000 894.663490,250.960000 895.267421,244.160000 895.871352,264.560000 896.475283,263.200000 897.079214,260.480000 897.683145,238.720000 898.287076,249.600000 898.891007,238.720000 899.494937,265.920000 900.098868,261.840000 900.702799,268.640000 901.306730,291.760000 901.910661,293.120000 902.514592,305.360000 903.118523,294.480000 903.722454,299.920000 904.326385,274.080000 904.930316,256.400000 905.534247,253.680000 906.138177,255.040000 906.742108,265.920000 907.346039,265.920000 907.949970,272.720000 908.553901,270.000000 909.157832,289.040000 909.761763,289.040000 910.365694,271.360000 910.969625,298.560000 911.573556,279.520000 912.177487,268.640000 912.781418,301.280000 913.385348,264.560000 913.989279,248.240000 914.593210,265.920000 915.197141,245.520000 915.801072,263.200000 916.405003,274.080000 917.008934,261.840000 917.612865,245.520000 918.216796,242.800000 918.820727,250.960000 919.424658,231.920000 920.028588,196.560000 920.632519,240.080000 921.236450,240.080000 921.840381,267.280000 922.444312,245.520000 923.048243,241.440000 923.652174,242.800000 924.256105,259.120000 924.860036,241.440000 925.463967,242.800000 926.067898,268.640000 926.671828,271.360000 927.275759,241.440000 927.879690,259.120000 928.483621,259.120000 929.087552,267.280000 929.691483,268.640000 930.295414,253.680000 930.899345,238.720000 931.503276,268.640000 932.107207,274.080000 932.711138,246.880000 933.315068,253.680000 933.918999,260.480000 934.522930,248.240000 935.126861,233.280000 935.730792,257.760000 936.334723,256.400000 936.938654,229.200000 937.542585,257.760000 938.146516,248.240000 938.750447,233.280000 939.354378,221.040000 939.958309,215.600000 940.562239,223.760000 941.166170,225.120000 941.770101,184.320000 942.374032,218.320000 942.977963,216.960000 943.581894,211.520000 944.185825,199.280000 944.789756,214.240000 945.393687,215.600000 945.997618,246.880000 946.601549,246.880000 947.205479,245.520000 947.809410,229.200000 948.413341,238.720000 949.017272,216.960000 949.621203,259.120000 950.225134,260.480000 950.829065,268.640000 951.432996,255.040000 952.036927,250.960000 952.640858,261.840000 953.244789,250.960000 953.848719,257.760000 954.452650,253.680000 955.056581,249.600000 955.660512,270.000000 956.264443,227.840000 956.868374,229.200000 957.472305,227.840000 958.076236,256.400000 958.680167,249.600000 959.284098,250.960000 959.888029,246.880000 960.491959,250.960000 961.095890,267.280000 961.699821,263.200000 962.303752,265.920000 962.907683,242.800000 963.511614,244.160000 964.115545,229.200000 964.719476,236.000000 965.323407,226.480000 965.927338,231.920000 966.531269,223.760000 967.135200,238.720000 967.739130,233.280000 968.343061,236.000000 968.946992,206.080000 969.550923,229.200000 970.154854,199.280000 970.758785,197.920000 971.362716,184.320000 971.966647,225.120000 972.570578,216.960000 973.174509,231.920000 973.778440,221.040000 974.382370,231.920000 974.986301,216.960000 975.590232,230.560000 976.194163,223.760000 976.798094,244.160000 977.402025,202.000000 978.005956,225.120000 978.609887,222.400000 979.213818,229.200000 979.817749,222.400000 980.421680,238.720000 981.025610,225.120000 981.629541,216.960000 982.233472,219.680000 982.837403,206.080000 983.441334,231.920000 984.045265,202.000000 984.649196,225.120000 985.253127,206.080000 985.857058,218.320000 986.460989,221.040000 987.064920,253.680000 987.668851,244.160000 988.272781,268.640000 988.876712,242.800000 989.480643,236.000000 990.084574,221.040000 990.688505,204.720000 991.292436,234.640000 991.896367,202.000000 992.500298,222.400000 993.104229,203.360000 993.708160,212.880000 994.312091,218.320000 994.916021,215.600000 995.519952,221.040000 996.123883,222.400000 996.727814,206.080000 997.331745,200.640000 997.935676,203.360000 998.539607,211.520000 999.143538,227.840000 999.747469,203.360000 1000.351400,218.320000 1000.955331,240.080000 1001.559261,238.720000 1002.163192,212.880000 1002.767123,230.560000 1003.371054,207.440000 1003.974985,214.240000 1004.578916,207.440000 1005.182847,204.720000 1005.786778,196.560000 1006.390709,166.640000 1006.994640,208.800000 1007.598571,207.440000 1008.202501,199.280000 1008.806432,210.160000 1009.410363,221.040000 1010.014294,222.400000 1010.618225,222.400000 1011.222156,222.400000 1011.826087,223.760000 1012.430018,223.760000 1013.033949,236.000000 1013.637880,263.200000 1014.241811,252.320000 1014.845742,202.000000 1015.449672,230.560000 1016.053603,236.000000 1016.657534,236.000000 1017.261465,222.400000 1017.865396,242.800000 1018.469327,222.400000 1019.073258,212.880000 1019.677189,210.160000 1020.281120,230.560000 1020.885051,215.600000 1021.488982,231.920000 1022.092912,231.920000 1022.696843,221.040000 1023.300774,215.600000 1023.904705,218.320000 1024.508636,203.360000 1025.112567,210.160000 1025.716498,206.080000 1026.320429,215.600000 1026.924360,195.200000 1027.528291,212.880000 1028.132222,202.000000 1028.736152,189.760000 1029.340083,178.880000 1029.944014,188.400000 1030.547945,202.000000 1031.151876,211.520000 1031.755807,218.320000 1032.359738,212.880000 1032.963669,218.320000 1033.567600,207.440000 1034.171531,193.840000 1034.775462,242.800000 1035.379392,233.280000 1035.983323,240.080000 1036.587254,215.600000 1037.191185,216.960000 1037.795116,231.920000 1038.399047,219.680000 1039.002978,207.440000 1039.606909,203.360000 1040.210840,227.840000 1040.814771,215.600000 1041.418702,222.400000 1042.022633,222.400000 1042.626563,240.080000 1043.230494,238.720000 1043.834425,226.480000 1044.438356,204.720000 1045.042287,197.920000 1045.646218,215.600000 1046.250149,223.760000 1046.854080,214.240000 1047.458011,206.080000 1048.061942,195.200000 1048.665873,197.920000 1049.269803,231.920000 1049.873734,207.440000 1050.477665,219.680000 1051.081596,212.880000 1051.685527,231.920000 1052.289458,222.400000 1052.893389,208.800000 1053.497320,222.400000 1054.101251,208.800000 1054.705182,199.280000 1055.309113,210.160000 1055.913043,191.120000 1056.516974,208.800000 1057.120905,200.640000 1057.724836,229.200000 1058.328767,197.920000 1058.932698,193.840000 1059.536629,185.680000 1060.140560,212.880000 1060.744491,225.120000 1061.348422,191.120000 1061.952353,184.320000 1062.556284,195.200000 1063.160214,212.880000 1063.764145,196.560000 1064.368076,187.040000 1064.972007,180.240000 1065.575938,173.440000 1066.179869,202.000000 1066.783800,195.200000 1067.387731,192.480000 1067.991662,204.720000 1068.595593,195.200000 1069.199524,189.760000 1069.803454,157.120000 1070.407385,159.840000 1071.011316,144.880000 1071.615247,143.520000 1072.219178,117.680000 1072.823109,120.400000 1073.427040,155.760000 1074.030971,173.440000 1074.634902,193.840000 1075.238833,189.760000 1075.842764,166.640000 1076.446694,181.600000 1077.050625,185.680000 1077.654556,180.240000 1078.258487,187.040000 1078.862418,165.280000 1079.466349,150.320000 1080.070280,146.240000 1080.674211,176.160000 1081.278142,180.240000 1081.882073,207.440000 1082.486004,192.480000 1083.089934,185.680000 1083.693865,203.360000 1084.297796,184.320000 1084.901727,185.680000 1085.505658,177.520000 1086.109589,192.480000 1086.713520,188.400000 1087.317451,184.320000 1087.921382,184.320000 1088.525313,193.840000 1089.129244,199.280000 1089.733175,189.760000 1090.337105,197.920000 1090.941036,195.200000 1091.544967,165.280000 1092.148898,191.120000 1092.752829,177.520000 1093.356760,177.520000 1093.960691,173.440000 1094.564622,144.880000 1095.168553,166.640000 1095.772484,187.040000 1096.376415,181.600000 1096.980345,176.160000 1097.584276,174.800000 1098.188207,177.520000 1098.792138,168.000000 1099.396069,169.360000 1100.000000,151.680000" fill="none" stroke="#3157a4" stroke-width="2"/></g></svg>