<svg xmlns="http://www.w3.org/2000/svg" viewBox="0 0 1160 612" role="img"><title>All fourteen decade means, 1880–2019, with shared −0.5 to +1.0°C liquid-level scales and 1951–1980 reference.</title><g font-family="Arial, sans-serif"><text x="38.0000" y="31.0000" font-size="30" fill="#263248" text-anchor="start" font-weight="700">Global temperature by decade, 1880–2019</text><text x="38.0000" y="64.0000" font-size="23" fill="#667085" text-anchor="start" font-weight="400">Mean difference from the 1951–1980 average · one thermometer = 120 months</text><line x1="87.000000" y1="205.000000" x2="1115.000000" y2="205.000000" stroke="#d8dbe4" stroke-width="1.1" stroke-dasharray=""/><text x="73.0000" y="212.0000" font-size="21" fill="#667085" text-anchor="end" font-weight="400">-0.5</text><line x1="87.000000" y1="165.000000" x2="1115.000000" y2="165.000000" stroke="#667085" stroke-width="1.8" stroke-dasharray="5 4"/><text x="73.0000" y="172.0000" font-size="21" fill="#667085" text-anchor="end" font-weight="400">0</text><line x1="87.000000" y1="125.000000" x2="1115.000000" y2="125.000000" stroke="#d8dbe4" stroke-width="1.1" stroke-dasharray=""/><text x="73.0000" y="132.0000" font-size="21" fill="#667085" text-anchor="end" font-weight="400">+0.5</text><line x1="87.000000" y1="85.000000" x2="1115.000000" y2="85.000000" stroke="#d8dbe4" stroke-width="1.1" stroke-dasharray=""/><text x="73.0000" y="92.0000" font-size="21" fill="#667085" text-anchor="end" font-weight="400">+1.0</text><g data-glyph="thermometer" data-value="-0.217" data-low="-0.5" data-high="1" data-top="85" data-bottom="205" data-level="182.360000" data-stem="28" data-bulb="19" data-decade="1880"><rect x="126.000000" y="77.000000" width="28.000000" height="144.000000" fill="#fcfaf6" rx="14.0" stroke="#263248" stroke-width="2"/><circle cx="140" cy="224" r="19" fill="#fcfaf6" stroke="#263248" stroke-width="2"/><rect x="131.000000" y="182.360000" width="18.000000" height="41.640000" fill="#dae0eb" /><circle cx="140" cy="224" r="14" fill="#dae0eb"/><line x1="131.000000" y1="182.360000" x2="149.000000" y2="182.360000" stroke="#263248" stroke-width="2.2" stroke-dasharray=""/><line x1="117.000000" y1="165.000000" x2="163.000000" y2="165.000000" stroke="#667085" stroke-width="1.5" stroke-dasharray="4 3"/></g><text x="140.0000" y="266.0000" font-size="22" fill="#263248" text-anchor="middle" font-weight="700">1880s</text><text x="140.0000" y="295.0000" font-size="22" fill="#263248" text-anchor="middle" font-weight="400">-0.22°C</text><g data-glyph="thermometer" data-value="-0.24225" data-low="-0.5" data-high="1" data-top="85" data-bottom="205" data-level="184.380000" data-stem="28" data-bulb="19" data-decade="1890"><rect x="276.000000" y="77.000000" width="28.000000" height="144.000000" fill="#fcfaf6" rx="14.0" stroke="#263248" stroke-width="2"/><circle cx="290" cy="224" r="19" fill="#fcfaf6" stroke="#263248" stroke-width="2"/><rect x="281.000000" y="184.380000" width="18.000000" height="39.620000" fill="#d7ddea" /><circle cx="290" cy="224" r="14" fill="#d7ddea"/><line x1="281.000000" y1="184.380000" x2="299.000000" y2="184.380000" stroke="#263248" stroke-width="2.2" stroke-dasharray=""/><line x1="267.000000" y1="165.000000" x2="313.000000" y2="165.000000" stroke="#667085" stroke-width="1.5" stroke-dasharray="4 3"/></g><text x="290.0000" y="266.0000" font-size="22" fill="#263248" text-anchor="middle" font-weight="700">1890s</text><text x="290.0000" y="295.0000" font-size="22" fill="#263248" text-anchor="middle" font-weight="400">-0.24°C</text><g data-glyph="thermometer" data-value="-0.3204166666666666666666666667" data-low="-0.5" data-high="1" data-top="85" data-bottom="205" data-level="190.633333" data-stem="28" data-bulb="19" data-decade="1900"><rect x="426.000000" y="77.000000" width="28.000000" height="144.000000" fill="#fcfaf6" rx="14.0" stroke="#263248" stroke-width="2"/><circle cx="440" cy="224" r="19" fill="#fcfaf6" stroke="#263248" stroke-width="2"/><rect x="431.000000" y="190.633333" width="18.000000" height="33.366667" fill="#cdd5e5" /><circle cx="440" cy="224" r="14" fill="#cdd5e5"/><line x1="431.000000" y1="190.633333" x2="449.000000" y2="190.633333" stroke="#263248" stroke-width="2.2" stroke-dasharray=""/><line x1="417.000000" y1="165.000000" x2="463.000000" y2="165.000000" stroke="#667085" stroke-width="1.5" stroke-dasharray="4 3"/></g><text x="440.0000" y="266.0000" font-size="22" fill="#263248" text-anchor="middle" font-weight="700">1900s</text><text x="440.0000" y="295.0000" font-size="22" fill="#263248" text-anchor="middle" font-weight="400">-0.32°C</text><g data-glyph="thermometer" data-value="-0.3351666666666666666666666667" data-low="-0.5" data-high="1" data-top="85" data-bottom="205" data-level="191.813333" data-stem="28" data-bulb="19" data-decade="1910"><rect x="576.000000" y="77.000000" width="28.000000" height="144.000000" fill="#fcfaf6" rx="14.0" stroke="#263248" stroke-width="2"/><circle cx="590" cy="224" r="19" fill="#fcfaf6" stroke="#263248" stroke-width="2"/><rect x="581.000000" y="191.813333" width="18.000000" height="32.186667" fill="#cbd3e4" /><circle cx="590" cy="224" r="14" fill="#cbd3e4"/><line x1="581.000000" y1="191.813333" x2="599.000000" y2="191.813333" stroke="#263248" stroke-width="2.2" stroke-dasharray=""/><line x1="567.000000" y1="165.000000" x2="613.000000" y2="165.000000" stroke="#667085" stroke-width="1.5" stroke-dasharray="4 3"/></g><text x="590.0000" y="266.0000" font-size="22" fill="#263248" text-anchor="middle" font-weight="700">1910s</text><text x="590.0000" y="295.0000" font-size="22" fill="#263248" text-anchor="middle" font-weight="400">-0.34°C</text><g data-glyph="thermometer" data-value="-0.2403333333333333333333333333" data-low="-0.5" data-high="1" data-top="85" data-bottom="205" data-level="184.226667" data-stem="28" data-bulb="19" data-decade="1920"><rect x="726.000000" y="77.000000" width="28.000000" height="144.000000" fill="#fcfaf6" rx="14.0" stroke="#263248" stroke-width="2"/><circle cx="740" cy="224" r="19" fill="#fcfaf6" stroke="#263248" stroke-width="2"/><rect x="731.000000" y="184.226667" width="18.000000" height="39.773333" fill="#d7ddea" /><circle cx="740" cy="224" r="14" fill="#d7ddea"/><line x1="731.000000" y1="184.226667" x2="749.000000" y2="184.226667" stroke="#263248" stroke-width="2.2" stroke-dasharray=""/><line x1="717.000000" y1="165.000000" x2="763.000000" y2="165.000000" stroke="#667085" stroke-width="1.5" stroke-dasharray="4 3"/></g><text x="740.0000" y="266.0000" font-size="22" fill="#263248" text-anchor="middle" font-weight="700">1920s</text><text x="740.0000" y="295.0000" font-size="22" fill="#263248" text-anchor="middle" font-weight="400">-0.24°C</text><g data-glyph="thermometer" data-value="-0.1249166666666666666666666667" data-low="-0.5" data-high="1" data-top="85" data-bottom="205" data-level="174.993333" data-stem="28" data-bulb="19" data-decade="1930"><rect x="876.000000" y="77.000000" width="28.000000" height="144.000000" fill="#fcfaf6" rx="14.0" stroke="#263248" stroke-width="2"/><circle cx="890" cy="224" r="19" fill="#fcfaf6" stroke="#263248" stroke-width="2"/><rect x="881.000000" y="174.993333" width="18.000000" height="49.006667" fill="#e7eaf0" /><circle cx="890" cy="224" r="14" fill="#e7eaf0"/><line x1="881.000000" y1="174.993333" x2="899.000000" y2="174.993333" stroke="#263248" stroke-width="2.2" stroke-dasharray=""/><line x1="867.000000" y1="165.000000" x2="913.000000" y2="165.000000" stroke="#667085" stroke-width="1.5" stroke-dasharray="4 3"/></g><text x="890.0000" y="266.0000" font-size="22" fill="#263248" text-anchor="middle" font-weight="700">1930s</text><text x="890.0000" y="295.0000" font-size="22" fill="#263248" text-anchor="middle" font-weight="400">-0.12°C</text><g data-glyph="thermometer" data-value="0.04258333333333333333333333333" data-low="-0.5" data-high="1" data-top="85" data-bottom="205" data-level="161.593333" data-stem="28" data-bulb="19" data-decade="1940"><rect x="1026.000000" y="77.000000" width="28.000000" height="144.000000" fill="#fcfaf6" rx="14.0" stroke="#263248" stroke-width="2"/><circle cx="1040" cy="224" r="19" fill="#fcfaf6" stroke="#263248" stroke-width="2"/><rect x="1031.000000" y="161.593333" width="18.000000" height="62.406667" fill="#f6f2f3" /><circle cx="1040" cy="224" r="14" fill="#f6f2f3"/><line x1="1031.000000" y1="161.593333" x2="1049.000000" y2="161.593333" stroke="#263248" stroke-width="2.2" stroke-dasharray=""/><line x1="1017.000000" y1="165.000000" x2="1063.000000" y2="165.000000" stroke="#667085" stroke-width="1.5" stroke-dasharray="4 3"/></g><text x="1040.0000" y="266.0000" font-size="22" fill="#263248" text-anchor="middle" font-weight="700">1940s</text><text x="1040.0000" y="295.0000" font-size="22" fill="#263248" text-anchor="middle" font-weight="400">+0.04°C</text><line x1="87.000000" y1="435.000000" x2="1115.000000" y2="435.000000" stroke="#d8dbe4" stroke-width="1.1" stroke-dasharray=""/><text x="73.0000" y="442.0000" font-size="21" fill="#667085" text-anchor="end" font-weight="400">-0.5</text><line x1="87.000000" y1="395.000000" x2="1115.000000" y2="395.000000" stroke="#667085" stroke-width="1.8" stroke-dasharray="5 4"/><text x="73.0000" y="402.0000" font-size="21" fill="#667085" text-anchor="end" font-weight="400">0</text><line x1="87.000000" y1="355.000000" x2="1115.000000" y2="355.000000" stroke="#d8dbe4" stroke-width="1.1" stroke-dasharray=""/><text x="73.0000" y="362.0000" font-size="21" fill="#667085" text-anchor="end" font-weight="400">+0.5</text><line x1="87.000000" y1="315.000000" x2="1115.000000" y2="315.000000" stroke="#d8dbe4" stroke-width="1.1" stroke-dasharray=""/><text x="73.0000" y="322.0000" font-size="21" fill="#667085" text-anchor="end" font-weight="400">+1.0</text><g data-glyph="thermometer" data-value="-0.04791666666666666666666666667" data-low="-0.5" data-high="1" data-top="315" data-bottom="435" data-level="398.833333" data-stem="28" data-bulb="19" data-decade="1950"><rect x="126.000000" y="307.000000" width="28.000000" height="144.000000" fill="#fcfaf6" rx="14.0" stroke="#263248" stroke-width="2"/><circle cx="140" cy="454" r="19" fill="#fcfaf6" stroke="#263248" stroke-width="2"/><rect x="131.000000" y="398.833333" width="18.000000" height="55.166667" fill="#f1f2f4" /><circle cx="140" cy="454" r="14" fill="#f1f2f4"/><line x1="131.000000" y1="398.833333" x2="149.000000" y2="398.833333" stroke="#263248" stroke-width="2.2" stroke-dasharray=""/><line x1="117.000000" y1="395.000000" x2="163.000000" y2="395.000000" stroke="#667085" stroke-width="1.5" stroke-dasharray="4 3"/></g><text x="140.0000" y="496.0000" font-size="22" fill="#263248" text-anchor="middle" font-weight="700">1950s</text><text x="140.0000" y="525.0000" font-size="22" fill="#263248" text-anchor="middle" font-weight="400">-0.05°C</text><g data-glyph="thermometer" data-value="-0.03008333333333333333333333333" data-low="-0.5" data-high="1" data-top="315" data-bottom="435" data-level="397.406667" data-stem="28" data-bulb="19" data-decade="1960"><rect x="276.000000" y="307.000000" width="28.000000" height="144.000000" fill="#fcfaf6" rx="14.0" stroke="#263248" stroke-width="2"/><circle cx="290" cy="454" r="19" fill="#fcfaf6" stroke="#263248" stroke-width="2"/><rect x="281.000000" y="397.406667" width="18.000000" height="56.593333" fill="#f3f4f5" /><circle cx="290" cy="454" r="14" fill="#f3f4f5"/><line x1="281.000000" y1="397.406667" x2="299.000000" y2="397.406667" stroke="#263248" stroke-width="2.2" stroke-dasharray=""/><line x1="267.000000" y1="395.000000" x2="313.000000" y2="395.000000" stroke="#667085" stroke-width="1.5" stroke-dasharray="4 3"/></g><text x="290.0000" y="496.0000" font-size="22" fill="#263248" text-anchor="middle" font-weight="700">1960s</text><text x="290.0000" y="525.0000" font-size="22" fill="#263248" text-anchor="middle" font-weight="400">-0.03°C</text><g data-glyph="thermometer" data-value="0.0345" data-low="-0.5" data-high="1" data-top="315" data-bottom="435" data-level="392.240000" data-stem="28" data-bulb="19" data-decade="1970"><rect x="426.000000" y="307.000000" width="28.000000" height="144.000000" fill="#fcfaf6" rx="14.0" stroke="#263248" stroke-width="2"/><circle cx="440" cy="454" r="19" fill="#fcfaf6" stroke="#263248" stroke-width="2"/><rect x="431.000000" y="392.240000" width="18.000000" height="61.760000" fill="#f6f3f3" /><circle cx="440" cy="454" r="14" fill="#f6f3f3"/><line x1="431.000000" y1="392.240000" x2="449.000000" y2="392.240000" stroke="#263248" stroke-width="2.2" stroke-dasharray=""/><line x1="417.000000" y1="395.000000" x2="463.000000" y2="395.000000" stroke="#667085" stroke-width="1.5" stroke-dasharray="4 3"/></g><text x="440.0000" y="496.0000" font-size="22" fill="#263248" text-anchor="middle" font-weight="700">1970s</text><text x="440.0000" y="525.0000" font-size="22" fill="#263248" text-anchor="middle" font-weight="400">+0.03°C</text><g data-glyph="thermometer" data-value="0.24725" data-low="-0.5" data-high="1" data-top="315" data-bottom="435" data-level="375.220000" data-stem="28" data-bulb="19" data-decade="1980"><rect x="576.000000" y="307.000000" width="28.000000" height="144.000000" fill="#fcfaf6" rx="14.0" stroke="#263248" stroke-width="2"/><circle cx="590" cy="454" r="19" fill="#fcfaf6" stroke="#263248" stroke-width="2"/><rect x="581.000000" y="375.220000" width="18.000000" height="78.780000" fill="#efdadd" /><circle cx="590" cy="454" r="14" fill="#efdadd"/><line x1="581.000000" y1="375.220000" x2="599.000000" y2="375.220000" stroke="#263248" stroke-width="2.2" stroke-dasharray=""/><line x1="567.000000" y1="395.000000" x2="613.000000" y2="395.000000" stroke="#667085" stroke-width="1.5" stroke-dasharray="4 3"/></g><text x="590.0000" y="496.0000" font-size="22" fill="#263248" text-anchor="middle" font-weight="700">1980s</text><text x="590.0000" y="525.0000" font-size="22" fill="#263248" text-anchor="middle" font-weight="400">+0.25°C</text><g data-glyph="thermometer" data-value="0.3870833333333333333333333333" data-low="-0.5" data-high="1" data-top="315" data-bottom="435" data-level="364.033333" data-stem="28" data-bulb="19" data-decade="1990"><rect x="726.000000" y="307.000000" width="28.000000" height="144.000000" fill="#fcfaf6" rx="14.0" stroke="#263248" stroke-width="2"/><circle cx="740" cy="454" r="19" fill="#fcfaf6" stroke="#263248" stroke-width="2"/><rect x="731.000000" y="364.033333" width="18.000000" height="89.966667" fill="#ebc9ce" /><circle cx="740" cy="454" r="14" fill="#ebc9ce"/><line x1="731.000000" y1="364.033333" x2="749.000000" y2="364.033333" stroke="#263248" stroke-width="2.2" stroke-dasharray=""/><line x1="717.000000" y1="395.000000" x2="763.000000" y2="395.000000" stroke="#667085" stroke-width="1.5" stroke-dasharray="4 3"/></g><text x="740.0000" y="496.0000" font-size="22" fill="#263248" text-anchor="middle" font-weight="700">1990s</text><text x="740.0000" y="525.0000" font-size="22" fill="#263248" text-anchor="middle" font-weight="400">+0.39°C</text><g data-glyph="thermometer" data-value="0.5888333333333333333333333333" data-low="-0.5" data-high="1" data-top="315" data-bottom="435" data-level="347.893333" data-stem="28" data-bulb="19" data-decade="2000"><rect x="876.000000" y="307.000000" width="28.000000" height="144.000000" fill="#fcfaf6" rx="14.0" stroke="#263248" stroke-width="2"/><circle cx="890" cy="454" r="19" fill="#fcfaf6" stroke="#263248" stroke-width="2"/><rect x="881.000000" y="347.893333" width="18.000000" height="106.106667" fill="#e5b1b9" /><circle cx="890" cy="454" r="14" fill="#e5b1b9"/><line x1="881.000000" y1="347.893333" x2="899.000000" y2="347.893333" stroke="#263248" stroke-width="2.2" stroke-dasharray=""/><line x1="867.000000" y1="395.000000" x2="913.000000" y2="395.000000" stroke="#667085" stroke-width="1.5" stroke-dasharray="4 3"/></g><text x="890.0000" y="496.0000" font-size="22" fill="#263248" text-anchor="middle" font-weight="700">2000s</text><text x="890.0000" y="525.0000" font-size="22" fill="#263248" text-anchor="middle" font-weight="400">+0.59°C</text><g data-glyph="thermometer" data-value="0.8060833333333333333333333333" data-low="-0.5" data-high="1" data-top="315" data-bottom="435" data-level="330.513333" data-stem="28" data-bulb="19" data-decade="2010"><rect x="1026.000000" y="307.000000" width="28.000000" height="144.000000" fill="#fcfaf6" rx="14.0" stroke="#263248" stroke-width="2"/><circle cx="1040" cy="454" r="19" fill="#fcfaf6" stroke="#263248" stroke-width="2"/><rect x="1031.000000" y="330.513333" width="18.000000" height="123.486667" fill="#de97a3" /><circle cx="1040" cy="454" r="14" fill="#de97a3"/><line x1="1031.000000" y1="330.513333" x2="1049.000000" y2="330.513333" stroke="#263248" stroke-width="2.2" stroke-dasharray=""/><line x1="1017.000000" y1="395.000000" x2="1063.000000" y2="395.000000" stroke="#667085" stroke-width="1.5" stroke-dasharray="4 3"/></g><text x="1040.0000" y="496.0000" font-size="22" fill="#263248" text-anchor="middle" font-weight="700">2010s</text><text x="1040.0000" y="525.0000" font-size="22" fill="#263248" text-anchor="middle" font-weight="400">+0.81°C</text><text x="38.0000" y="580.0000" font-size="21" fill="#667085" text-anchor="start" font-weight="400">Read left to right, then continue on the next row.</text><rect x="665.000000" y="558.000000" width="1.749167" height="16.000000" fill="#3258a4" /><rect x="666.729167" y="558.000000" width="1.749167" height="16.000000" fill="#3359a5" /><rect x="668.458333" y="558.000000" width="1.749167" height="16.000000" fill="#355aa6" /><rect x="670.187500" y="558.000000" width="1.749167" height="16.000000" fill="#375ca6" /><rect x="671.916667" y="558.000000" width="1.749167" height="16.000000" fill="#385da7" /><rect x="673.645833" y="558.000000" width="1.749167" height="16.000000" fill="#3a5ea8" /><rect x="675.375000" y="558.000000" width="1.749167" height="16.000000" fill="#3c60a8" /><rect x="677.104167" y="558.000000" width="1.749167" height="16.000000" fill="#3d61a9" /><rect x="678.833333" y="558.000000" width="1.749167" height="16.000000" fill="#3f62aa" /><rect x="680.562500" y="558.000000" width="1.749167" height="16.000000" fill="#4164ab" /><rect x="682.291667" y="558.000000" width="1.749167" height="16.000000" fill="#4265ab" /><rect x="684.020833" y="558.000000" width="1.749167" height="16.000000" fill="#4466ac" /><rect x="685.750000" y="558.000000" width="1.749167" height="16.000000" fill="#4668ad" /><rect x="687.479167" y="558.000000" width="1.749167" height="16.000000" fill="#4769ad" /><rect x="689.208333" y="558.000000" width="1.749167" height="16.000000" fill="#496aae" /><rect x="690.937500" y="558.000000" width="1.749167" height="16.000000" fill="#4b6caf" /><rect x="692.666667" y="558.000000" width="1.749167" height="16.000000" fill="#4c6daf" /><rect x="694.395833" y="558.000000" width="1.749167" height="16.000000" fill="#4e6eb0" /><rect x="696.125000" y="558.000000" width="1.749167" height="16.000000" fill="#5070b1" /><rect x="697.854167" y="558.000000" width="1.749167" height="16.000000" fill="#5171b1" /><rect x="699.583333" y="558.000000" width="1.749167" height="16.000000" fill="#5372b2" /><rect x="701.312500" y="558.000000" width="1.749167" height="16.000000" fill="#5474b3" /><rect x="703.041667" y="558.000000" width="1.749167" height="16.000000" fill="#5675b4" /><rect x="704.770833" y="558.000000" width="1.749167" height="16.000000" fill="#5876b4" /><rect x="706.500000" y="558.000000" width="1.749167" height="16.000000" fill="#5978b5" /><rect x="708.229167" y="558.000000" width="1.749167" height="16.000000" fill="#5b79b6" /><rect x="709.958333" y="558.000000" width="1.749167" height="16.000000" fill="#5d7ab6" /><rect x="711.687500" y="558.000000" width="1.749167" height="16.000000" fill="#5e7cb7" /><rect x="713.416667" y="558.000000" width="1.749167" height="16.000000" fill="#607db8" /><rect x="715.145833" y="558.000000" width="1.749167" height="16.000000" fill="#627eb8" /><rect x="716.875000" y="558.000000" width="1.749167" height="16.000000" fill="#6380b9" /><rect x="718.604167" y="558.000000" width="1.749167" height="16.000000" fill="#6581ba" /><rect x="720.333333" y="558.000000" width="1.749167" height="16.000000" fill="#6782ba" /><rect x="722.062500" y="558.000000" width="1.749167" height="16.000000" fill="#6884bb" /><rect x="723.791667" y="558.000000" width="1.749167" height="16.000000" fill="#6a85bc" /><rect x="725.520833" y="558.000000" width="1.749167" height="16.000000" fill="#6c86bd" /><rect x="727.250000" y="558.000000" width="1.749167" height="16.000000" fill="#6d88bd" /><rect x="728.979167" y="558.000000" width="1.749167" height="16.000000" fill="#6f89be" /><rect x="730.708333" y="558.000000" width="1.749167" height="16.000000" fill="#718abf" /><rect x="732.437500" y="558.000000" width="1.749167" height="16.000000" fill="#728cbf" /><rect x="734.166667" y="558.000000" width="1.749167" height="16.000000" fill="#748dc0" /><rect x="735.895833" y="558.000000" width="1.749167" height="16.000000" fill="#758ec1" /><rect x="737.625000" y="558.000000" width="1.749167" height="16.000000" fill="#7790c1" /><rect x="739.354167" y="558.000000" width="1.749167" height="16.000000" fill="#7991c2" /><rect x="741.083333" y="558.000000" width="1.749167" height="16.000000" fill="#7a92c3" /><rect x="742.812500" y="558.000000" width="1.749167" height="16.000000" fill="#7c94c3" /><rect x="744.541667" y="558.000000" width="1.749167" height="16.000000" fill="#7e95c4" /><rect x="746.270833" y="558.000000" width="1.749167" height="16.000000" fill="#7f96c5" /><rect x="748.000000" y="558.000000" width="1.749167" height="16.000000" fill="#8198c6" /><rect x="749.729167" y="558.000000" width="1.749167" height="16.000000" fill="#8399c6" /><rect x="751.458333" y="558.000000" width="1.749167" height="16.000000" fill="#849ac7" /><rect x="753.187500" y="558.000000" width="1.749167" height="16.000000" fill="#869cc8" /><rect x="754.916667" y="558.000000" width="1.749167" height="16.000000" fill="#889dc8" /><rect x="756.645833" y="558.000000" width="1.749167" height="16.000000" fill="#899ec9" /><rect x="758.375000" y="558.000000" width="1.749167" height="16.000000" fill="#8ba0ca" /><rect x="760.104167" y="558.000000" width="1.749167" height="16.000000" fill="#8da1ca" /><rect x="761.833333" y="558.000000" width="1.749167" height="16.000000" fill="#8ea2cb" /><rect x="763.562500" y="558.000000" width="1.749167" height="16.000000" fill="#90a4cc" /><rect x="765.291667" y="558.000000" width="1.749167" height="16.000000" fill="#92a5cc" /><rect x="767.020833" y="558.000000" width="1.749167" height="16.000000" fill="#93a6cd" /><rect x="768.750000" y="558.000000" width="1.749167" height="16.000000" fill="#95a8ce" /><rect x="770.479167" y="558.000000" width="1.749167" height="16.000000" fill="#96a9cf" /><rect x="772.208333" y="558.000000" width="1.749167" height="16.000000" fill="#98aacf" /><rect x="773.937500" y="558.000000" width="1.749167" height="16.000000" fill="#9aacd0" /><rect x="775.666667" y="558.000000" width="1.749167" height="16.000000" fill="#9badd1" /><rect x="777.395833" y="558.000000" width="1.749167" height="16.000000" fill="#9daed1" /><rect x="779.125000" y="558.000000" width="1.749167" height="16.000000" fill="#9fb0d2" /><rect x="780.854167" y="558.000000" width="1.749167" height="16.000000" fill="#a0b1d3" /><rect x="782.583333" y="558.000000" width="1.749167" height="16.000000" fill="#a2b2d3" /><rect x="784.312500" y="558.000000" width="1.749167" height="16.000000" fill="#a4b4d4" /><rect x="786.041667" y="558.000000" width="1.749167" height="16.000000" fill="#a5b5d5" /><rect x="787.770833" y="558.000000" width="1.749167" height="16.000000" fill="#a7b6d5" /><rect x="789.500000" y="558.000000" width="1.749167" height="16.000000" fill="#a9b8d6" /><rect x="791.229167" y="558.000000" width="1.749167" height="16.000000" fill="#aab9d7" /><rect x="792.958333" y="558.000000" width="1.749167" height="16.000000" fill="#acbad8" /><rect x="794.687500" y="558.000000" width="1.749167" height="16.000000" fill="#aebcd8" /><rect x="796.416667" y="558.000000" width="1.749167" height="16.000000" fill="#afbdd9" /><rect x="798.145833" y="558.000000" width="1.749167" height="16.000000" fill="#b1beda" /><rect x="799.875000" y="558.000000" width="1.749167" height="16.000000" fill="#b3c0da" /><rect x="801.604167" y="558.000000" width="1.749167" height="16.000000" fill="#b4c1db" /><rect x="803.333333" y="558.000000" width="1.749167" height="16.000000" fill="#b6c2dc" /><rect x="805.062500" y="558.000000" width="1.749167" height="16.000000" fill="#b7c4dc" /><rect x="806.791667" y="558.000000" width="1.749167" height="16.000000" fill="#b9c5dd" /><rect x="808.520833" y="558.000000" width="1.749167" height="16.000000" fill="#bbc6de" /><rect x="810.250000" y="558.000000" width="1.749167" height="16.000000" fill="#bcc8de" /><rect x="811.979167" y="558.000000" width="1.749167" height="16.000000" fill="#bec9df" /><rect x="813.708333" y="558.000000" width="1.749167" height="16.000000" fill="#c0cae0" /><rect x="815.437500" y="558.000000" width="1.749167" height="16.000000" fill="#c1cce1" /><rect x="817.166667" y="558.000000" width="1.749167" height="16.000000" fill="#c3cde1" /><rect x="818.895833" y="558.000000" width="1.749167" height="16.000000" fill="#c5cee2" /><rect x="820.625000" y="558.000000" width="1.749167" height="16.000000" fill="#c6d0e3" /><rect x="822.354167" y="558.000000" width="1.749167" height="16.000000" fill="#c8d1e3" /><rect x="824.083333" y="558.000000" width="1.749167" height="16.000000" fill="#cad2e4" /><rect x="825.812500" y="558.000000" width="1.749167" height="16.000000" fill="#cbd4e5" /><rect x="827.541667" y="558.000000" width="1.749167" height="16.000000" fill="#cdd5e5" /><rect x="829.270833" y="558.000000" width="1.749167" height="16.000000" fill="#cfd6e6" /><rect x="831.000000" y="558.000000" width="1.749167" height="16.000000" fill="#d0d8e7" /><rect x="832.729167" y="558.000000" width="1.749167" height="16.000000" fill="#d2d9e7" /><rect x="834.458333" y="558.000000" width="1.749167" height="16.000000" fill="#d4dae8" /><rect x="836.187500" y="558.000000" width="1.749167" height="16.000000" fill="#d5dce9" /><rect x="837.916667" y="558.000000" width="1.749167" height="16.000000" fill="#d7ddea" /><rect x="839.645833" y="558.000000" width="1.749167" height="16.000000" fill="#d8deea" /><rect x="841.375000" y="558.000000" width="1.749167" height="16.000000" fill="#dae0eb" /><rect x="843.104167" y="558.000000" width="1.749167" height="16.000000" fill="#dce1ec" /><rect x="844.833333" y="558.000000" width="1.749167" height="16.000000" fill="#dde2ec" /><rect x="846.562500" y="558.000000" width="1.749167" height="16.000000" fill="#dfe4ed" /><rect x="848.291667" y="558.000000" width="1.749167" height="16.000000" fill="#e1e5ee" /><rect x="850.020833" y="558.000000" width="1.749167" height="16.000000" fill="#e2e6ee" /><rect x="851.750000" y="558.000000" width="1.749167" height="16.000000" fill="#e4e8ef" /><rect x="853.479167" y="558.000000" width="1.749167" height="16.000000" fill="#e6e9f0" /><rect x="855.208333" y="558.000000" width="1.749167" height="16.000000" fill="#e7eaf0" /><rect x="856.937500" y="558.000000" width="1.749167" height="16.000000" fill="#e9ecf1" /><rect x="858.666667" y="558.000000" width="1.749167" height="16.000000" fill="#ebedf2" /><rect x="860.395833" y="558.000000" width="1.749167" height="16.000000" fill="#eceef3" /><rect x="862.125000" y="558.000000" width="1.749167" height="16.000000" fill="#eef0f3" /><rect x="863.854167" y="558.000000" width="1.749167" height="16.000000" fill="#f0f1f4" /><rect x="865.583333" y="558.000000" width="1.749167" height="16.000000" fill="#f1f2f5" /><rect x="867.312500" y="558.000000" width="1.749167" height="16.000000" fill="#f3f4f5" /><rect x="869.041667" y="558.000000" width="1.749167" height="16.000000" fill="#f5f5f6" /><rect x="870.770833" y="558.000000" width="1.749167" height="16.000000" fill="#f6f6f7" /><rect x="872.500000" y="558.000000" width="1.749167" height="16.000000" fill="#f7f6f6" /><rect x="874.229167" y="558.000000" width="1.749167" height="16.000000" fill="#f6f5f5" /><rect x="875.958333" y="558.000000" width="1.749167" height="16.000000" fill="#f6f3f4" /><rect x="877.687500" y="558.000000" width="1.749167" height="16.000000" fill="#f6f2f2" /><rect x="879.416667" y="558.000000" width="1.749167" height="16.000000" fill="#f5f0f1" /><rect x="881.145833" y="558.000000" width="1.749167" height="16.000000" fill="#f5eff0" /><rect x="882.875000" y="558.000000" width="1.749167" height="16.000000" fill="#f5edee" /><rect x="884.604167" y="558.000000" width="1.749167" height="16.000000" fill="#f4eced" /><rect x="886.333333" y="558.000000" width="1.749167" height="16.000000" fill="#f4eaec" /><rect x="888.062500" y="558.000000" width="1.749167" height="16.000000" fill="#f3e9eb" /><rect x="889.791667" y="558.000000" width="1.749167" height="16.000000" fill="#f3e7e9" /><rect x="891.520833" y="558.000000" width="1.749167" height="16.000000" fill="#f3e6e8" /><rect x="893.250000" y="558.000000" width="1.749167" height="16.000000" fill="#f2e4e7" /><rect x="894.979167" y="558.000000" width="1.749167" height="16.000000" fill="#f2e3e5" /><rect x="896.708333" y="558.000000" width="1.749167" height="16.000000" fill="#f1e1e4" /><rect x="898.437500" y="558.000000" width="1.749167" height="16.000000" fill="#f1e0e3" /><rect x="900.166667" y="558.000000" width="1.749167" height="16.000000" fill="#f1dfe1" /><rect x="901.895833" y="558.000000" width="1.749167" height="16.000000" fill="#f0dde0" /><rect x="903.625000" y="558.000000" width="1.749167" height="16.000000" fill="#f0dcdf" /><rect x="905.354167" y="558.000000" width="1.749167" height="16.000000" fill="#f0dadd" /><rect x="907.083333" y="558.000000" width="1.749167" height="16.000000" fill="#efd9dc" /><rect x="908.812500" y="558.000000" width="1.749167" height="16.000000" fill="#efd7db" /><rect x="910.541667" y="558.000000" width="1.749167" height="16.000000" fill="#eed6da" /><rect x="912.270833" y="558.000000" width="1.749167" height="16.000000" fill="#eed4d8" /><rect x="914.000000" y="558.000000" width="1.749167" height="16.000000" fill="#eed3d7" /><rect x="915.729167" y="558.000000" width="1.749167" height="16.000000" fill="#edd1d6" /><rect x="917.458333" y="558.000000" width="1.749167" height="16.000000" fill="#edd0d4" /><rect x="919.187500" y="558.000000" width="1.749167" height="16.000000" fill="#ecced3" /><rect x="920.916667" y="558.000000" width="1.749167" height="16.000000" fill="#eccdd2" /><rect x="922.645833" y="558.000000" width="1.749167" height="16.000000" fill="#eccbd0" /><rect x="924.375000" y="558.000000" width="1.749167" height="16.000000" fill="#ebcacf" /><rect x="926.104167" y="558.000000" width="1.749167" height="16.000000" fill="#ebc8ce" /><rect x="927.833333" y="558.000000" width="1.749167" height="16.000000" fill="#ebc7cc" /><rect x="929.562500" y="558.000000" width="1.749167" height="16.000000" fill="#eac5cb" /><rect x="931.291667" y="558.000000" width="1.749167" height="16.000000" fill="#eac4ca" /><rect x="933.020833" y="558.000000" width="1.749167" height="16.000000" fill="#e9c2c9" /><rect x="934.750000" y="558.000000" width="1.749167" height="16.000000" fill="#e9c1c7" /><rect x="936.479167" y="558.000000" width="1.749167" height="16.000000" fill="#e9bfc6" /><rect x="938.208333" y="558.000000" width="1.749167" height="16.000000" fill="#e8bec5" /><rect x="939.937500" y="558.000000" width="1.749167" height="16.000000" fill="#e8bcc3" /><rect x="941.666667" y="558.000000" width="1.749167" height="16.000000" fill="#e7bbc2" /><rect x="943.395833" y="558.000000" width="1.749167" height="16.000000" fill="#e7b9c1" /><rect x="945.125000" y="558.000000" width="1.749167" height="16.000000" fill="#e7b8bf" /><rect x="946.854167" y="558.000000" width="1.749167" height="16.000000" fill="#e6b6be" /><rect x="948.583333" y="558.000000" width="1.749167" height="16.000000" fill="#e6b5bd" /><rect x="950.312500" y="558.000000" width="1.749167" height="16.000000" fill="#e6b4bb" /><rect x="952.041667" y="558.000000" width="1.749167" height="16.000000" fill="#e5b2ba" /><rect x="953.770833" y="558.000000" width="1.749167" height="16.000000" fill="#e5b1b9" /><rect x="955.500000" y="558.000000" width="1.749167" height="16.000000" fill="#e4afb8" /><rect x="957.229167" y="558.000000" width="1.749167" height="16.000000" fill="#e4aeb6" /><rect x="958.958333" y="558.000000" width="1.749167" height="16.000000" fill="#e4acb5" /><rect x="960.687500" y="558.000000" width="1.749167" height="16.000000" fill="#e3abb4" /><rect x="962.416667" y="558.000000" width="1.749167" height="16.000000" fill="#e3a9b2" /><rect x="964.145833" y="558.000000" width="1.749167" height="16.000000" fill="#e2a8b1" /><rect x="965.875000" y="558.000000" width="1.749167" height="16.000000" fill="#e2a6b0" /><rect x="967.604167" y="558.000000" width="1.749167" height="16.000000" fill="#e2a5ae" /><rect x="969.333333" y="558.000000" width="1.749167" height="16.000000" fill="#e1a3ad" /><rect x="971.062500" y="558.000000" width="1.749167" height="16.000000" fill="#e1a2ac" /><rect x="972.791667" y="558.000000" width="1.749167" height="16.000000" fill="#e1a0aa" /><rect x="974.520833" y="558.000000" width="1.749167" height="16.000000" fill="#e09fa9" /><rect x="976.250000" y="558.000000" width="1.749167" height="16.000000" fill="#e09da8" /><rect x="977.979167" y="558.000000" width="1.749167" height="16.000000" fill="#df9ca7" /><rect x="979.708333" y="558.000000" width="1.749167" height="16.000000" fill="#df9aa5" /><rect x="981.437500" y="558.000000" width="1.749167" height="16.000000" fill="#df99a4" /><rect x="983.166667" y="558.000000" width="1.749167" height="16.000000" fill="#de97a3" /><rect x="984.895833" y="558.000000" width="1.749167" height="16.000000" fill="#de96a1" /><rect x="986.625000" y="558.000000" width="1.749167" height="16.000000" fill="#de94a0" /><rect x="988.354167" y="558.000000" width="1.749167" height="16.000000" fill="#dd939f" /><rect x="990.083333" y="558.000000" width="1.749167" height="16.000000" fill="#dd919d" /><rect x="991.812500" y="558.000000" width="1.749167" height="16.000000" fill="#dc909c" /><rect x="993.541667" y="558.000000" width="1.749167" height="16.000000" fill="#dc8e9b" /><rect x="995.270833" y="558.000000" width="1.749167" height="16.000000" fill="#dc8d99" /><rect x="997.000000" y="558.000000" width="1.749167" height="16.000000" fill="#db8b98" /><rect x="998.729167" y="558.000000" width="1.749167" height="16.000000" fill="#db8a97" /><rect x="1000.458333" y="558.000000" width="1.749167" height="16.000000" fill="#da8896" /><rect x="1002.187500" y="558.000000" width="1.749167" height="16.000000" fill="#da8794" /><rect x="1003.916667" y="558.000000" width="1.749167" height="16.000000" fill="#da8693" /><rect x="1005.645833" y="558.000000" width="1.749167" height="16.000000" fill="#d98492" /><rect x="1007.375000" y="558.000000" width="1.749167" height="16.000000" fill="#d98390" /><rect x="1009.104167" y="558.000000" width="1.749167" height="16.000000" fill="#d9818f" /><rect x="1010.833333" y="558.000000" width="1.749167" height="16.000000" fill="#d8808e" /><rect x="1012.562500" y="558.000000" width="1.749167" height="16.000000" fill="#d87e8c" /><rect x="1014.291667" y="558.000000" width="1.749167" height="16.000000" fill="#d77d8b" /><rect x="1016.020833" y="558.000000" width="1.749167" height="16.000000" fill="#d77b8a" /><rect x="1017.750000" y="558.000000" width="1.749167" height="16.000000" fill="#d77a88" /><rect x="1019.479167" y="558.000000" width="1.749167" height="16.000000" fill="#d67887" /><rect x="1021.208333" y="558.000000" width="1.749167" height="16.000000" fill="#d67786" /><rect x="1022.937500" y="558.000000" width="1.749167" height="16.000000" fill="#d57585" /><rect x="1024.666667" y="558.000000" width="1.749167" height="16.000000" fill="#d57483" /><rect x="1026.395833" y="558.000000" width="1.749167" height="16.000000" fill="#d57282" /><rect x="1028.125000" y="558.000000" width="1.749167" height="16.000000" fill="#d47181" /><rect x="1029.854167" y="558.000000" width="1.749167" height="16.000000" fill="#d46f7f" /><rect x="1031.583333" y="558.000000" width="1.749167" height="16.000000" fill="#d46e7e" /><rect x="1033.312500" y="558.000000" width="1.749167" height="16.000000" fill="#d36c7d" /><rect x="1035.041667" y="558.000000" width="1.749167" height="16.000000" fill="#d36b7b" /><rect x="1036.770833" y="558.000000" width="1.749167" height="16.000000" fill="#d2697a" /><rect x="1038.500000" y="558.000000" width="1.749167" height="16.000000" fill="#d26879" /><rect x="1040.229167" y="558.000000" width="1.749167" height="16.000000" fill="#d26677" /><rect x="1041.958333" y="558.000000" width="1.749167" height="16.000000" fill="#d16576" /><rect x="1043.687500" y="558.000000" width="1.749167" height="16.000000" fill="#d16375" /><rect x="1045.416667" y="558.000000" width="1.749167" height="16.000000" fill="#d06274" /><rect x="1047.145833" y="558.000000" width="1.749167" height="16.000000" fill="#d06072" /><rect x="1048.875000" y="558.000000" width="1.749167" height="16.000000" fill="#d05f71" /><rect x="1050.604167" y="558.000000" width="1.749167" height="16.000000" fill="#cf5d70" /><rect x="1052.333333" y="558.000000" width="1.749167" height="16.000000" fill="#cf5c6e" /><rect x="1054.062500" y="558.000000" width="1.749167" height="16.000000" fill="#cf5b6d" /><rect x="1055.791667" y="558.000000" width="1.749167" height="16.000000" fill="#ce596c" /><rect x="1057.520833" y="558.000000" width="1.749167" height="16.000000" fill="#ce586a" /><rect x="1059.250000" y="558.000000" width="1.749167" height="16.000000" fill="#cd5669" /><rect x="1060.979167" y="558.000000" width="1.749167" height="16.000000" fill="#cd5568" /><rect x="1062.708333" y="558.000000" width="1.749167" height="16.000000" fill="#cd5366" /><rect x="1064.437500" y="558.000000" width="1.749167" height="16.000000" fill="#cc5265" /><rect x="1066.166667" y="558.000000" width="1.749167" height="16.000000" fill="#cc5064" /><rect x="1067.895833" y="558.000000" width="1.749167" height="16.000000" fill="#cb4f63" /><rect x="1069.625000" y="558.000000" width="1.749167" height="16.000000" fill="#cb4d61" /><rect x="1071.354167" y="558.000000" width="1.749167" height="16.000000" fill="#cb4c60" /><rect x="1073.083333" y="558.000000" width="1.749167" height="16.000000" fill="#ca4a5f" /><rect x="1074.812500" y="558.000000" width="1.749167" height="16.000000" fill="#ca495d" /><rect x="1076.541667" y="558.000000" width="1.749167" height="16.000000" fill="#ca475c" /><rect x="1078.270833" y="558.000000" width="1.749167" height="16.000000" fill="#c9465b" /><line x1="665.000000" y1="574.000000" x2="665.000000" y2="579.000000" stroke="#667085" stroke-width="1.3" stroke-dasharray=""/><text x="665.0000" y="603.0000" font-size="22" fill="#667085" text-anchor="middle" font-weight="400">-1.5</text><line x1="768.750000" y1="574.000000" x2="768.750000" y2="579.000000" stroke="#667085" stroke-width="1.3" stroke-dasharray=""/><text x="768.7500" y="603.0000" font-size="22" fill="#667085" text-anchor="middle" font-weight="400">-0.75</text><line x1="872.500000" y1="574.000000" x2="872.500000" y2="579.000000" stroke="#667085" stroke-width="1.3" stroke-dasharray=""/><text x="872.5000" y="603.0000" font-size="22" fill="#667085" text-anchor="middle" font-weight="400">0</text><line x1="976.250000" y1="574.000000" x2="976.250000" y2="579.000000" stroke="#667085" stroke-width="1.3" stroke-dasharray=""/><text x="976.2500" y="603.0000" font-size="22" fill="#667085" text-anchor="middle" font-weight="400">+0.75</text><line x1="1080.000000" y1="574.000000" x2="1080.000000" y2="579.000000" stroke="#667085" stroke-width="1.3" stroke-dasharray=""/><text x="1080.0000" y="603.0000" font-size="22" fill="#667085" text-anchor="middle" font-weight="400">+1.5</text></g></svg>