<svg xmlns="http://www.w3.org/2000/svg" viewBox="0 0 1160 698" role="img"><title>Fourteen decade glyphs: mean plus observed monthly minimum and maximum; common −1.0 to +1.5°C position scale.</title><g font-family="Arial, sans-serif"><text x="60" y="31" font-size="31" fill="#263248" text-anchor="start" font-weight="700">Global temperature change, 1880–2019</text><text x="60" y="68" font-size="24" fill="#667085" text-anchor="start" font-weight="400">Anomaly (°C) relative to 1951–1980 · each decade contains 120 months</text><line x1="78" y1="243.0" x2="1120" y2="243.0" stroke="#d8dbe4" stroke-width="1.5" stroke-dasharray=""/><text x="64" y="250.0" font-size="20" fill="#667085" text-anchor="end" font-weight="400">-1.0</text><line x1="78" y1="187.8" x2="1120" y2="187.8" stroke="#667085" stroke-width="1.5" stroke-dasharray="5 4"/><text x="64" y="194.8" font-size="20" fill="#667085" text-anchor="end" font-weight="400">0</text><line x1="78" y1="105.0" x2="1120" y2="105.0" stroke="#d8dbe4" stroke-width="1.5" stroke-dasharray=""/><text x="64" y="112.0" font-size="20" fill="#667085" text-anchor="end" font-weight="400">+1.5</text><g data-glyph="mean-range" data-decade="1880" data-mean="-0.217" data-min="-0.72" data-max="0.16" data-domain-low="-1" data-domain-high="1.5" data-top="105" data-bottom="243" data-level="199.778400" data-range-low="227.544000" data-range-high="178.968000"><rect x="113" y="98" width="30" height="163" rx="15" fill="#fcfaf6" stroke="#263248" stroke-width="2"/><circle cx="128" cy="259" r="21" fill="#fcfaf6" stroke="#263248" stroke-width="2"/><rect x="118" y="199.778400" width="20" height="59.221600" fill="#dae0eb"/><circle cx="128" cy="259" r="16" fill="#dae0eb"/><line x1="118" y1="199.7784" x2="138" y2="199.7784" stroke="#263248" stroke-width="2.5" stroke-dasharray=""/><line x1="105" y1="187.8" x2="151" y2="187.8" stroke="#667085" stroke-width="1.2" stroke-dasharray="4 3"/><line x1="168" y1="227.54399999999998" x2="168" y2="178.96800000000002" stroke="#263248" stroke-width="3" stroke-dasharray=""/><line x1="159" y1="227.54399999999998" x2="177" y2="227.54399999999998" stroke="#263248" stroke-width="3" stroke-dasharray=""/><line x1="159" y1="178.96800000000002" x2="177" y2="178.96800000000002" stroke="#263248" stroke-width="3" stroke-dasharray=""/></g><text x="128" y="300" font-size="23" fill="#263248" text-anchor="middle" font-weight="700">1880s</text><text x="128" y="330" font-size="23" fill="#263248" text-anchor="middle" font-weight="400">-0.22°C</text><g data-glyph="mean-range" data-decade="1890" data-mean="-0.24225" data-min="-0.81" data-max="0.12" data-domain-low="-1" data-domain-high="1.5" data-top="105" data-bottom="243" data-level="201.172200" data-range-low="232.512000" data-range-high="181.176000"><rect x="267" y="98" width="30" height="163" rx="15" fill="#fcfaf6" stroke="#263248" stroke-width="2"/><circle cx="282" cy="259" r="21" fill="#fcfaf6" stroke="#263248" stroke-width="2"/><rect x="272" y="201.172200" width="20" height="57.827800" fill="#d7ddea"/><circle cx="282" cy="259" r="16" fill="#d7ddea"/><line x1="272" y1="201.1722" x2="292" y2="201.1722" stroke="#263248" stroke-width="2.5" stroke-dasharray=""/><line x1="259" y1="187.8" x2="305" y2="187.8" stroke="#667085" stroke-width="1.2" stroke-dasharray="4 3"/><line x1="322" y1="232.512" x2="322" y2="181.176" stroke="#263248" stroke-width="3" stroke-dasharray=""/><line x1="313" y1="232.512" x2="331" y2="232.512" stroke="#263248" stroke-width="3" stroke-dasharray=""/><line x1="313" y1="181.176" x2="331" y2="181.176" stroke="#263248" stroke-width="3" stroke-dasharray=""/></g><text x="282" y="300" font-size="23" fill="#263248" text-anchor="middle" font-weight="700">1890s</text><text x="282" y="330" font-size="23" fill="#263248" text-anchor="middle" font-weight="400">-0.24°C</text><g data-glyph="mean-range" data-decade="1900" data-mean="-0.3204166666666666666666666667" data-min="-0.74" data-max="0.09" data-domain-low="-1" data-domain-high="1.5" data-top="105" data-bottom="243" data-level="205.487000" data-range-low="228.648000" data-range-high="182.832000"><rect x="421" y="98" width="30" height="163" rx="15" fill="#fcfaf6" stroke="#263248" stroke-width="2"/><circle cx="436" cy="259" r="21" fill="#fcfaf6" stroke="#263248" stroke-width="2"/><rect x="426" y="205.487000" width="20" height="53.513000" fill="#cdd5e5"/><circle cx="436" cy="259" r="16" fill="#cdd5e5"/><line x1="426" y1="205.487" x2="446" y2="205.487" stroke="#263248" stroke-width="2.5" stroke-dasharray=""/><line x1="413" y1="187.8" x2="459" y2="187.8" stroke="#667085" stroke-width="1.2" stroke-dasharray="4 3"/><line x1="476" y1="228.648" x2="476" y2="182.832" stroke="#263248" stroke-width="3" stroke-dasharray=""/><line x1="467" y1="228.648" x2="485" y2="228.648" stroke="#263248" stroke-width="3" stroke-dasharray=""/><line x1="467" y1="182.832" x2="485" y2="182.832" stroke="#263248" stroke-width="3" stroke-dasharray=""/></g><text x="436" y="300" font-size="23" fill="#263248" text-anchor="middle" font-weight="700">1900s</text><text x="436" y="330" font-size="23" fill="#263248" text-anchor="middle" font-weight="400">-0.32°C</text><g data-glyph="mean-range" data-decade="1910" data-mean="-0.3351666666666666666666666667" data-min="-0.82" data-max="0.06" data-domain-low="-1" data-domain-high="1.5" data-top="105" data-bottom="243" data-level="206.301200" data-range-low="233.064000" data-range-high="184.488000"><rect x="575" y="98" width="30" height="163" rx="15" fill="#fcfaf6" stroke="#263248" stroke-width="2"/><circle cx="590" cy="259" r="21" fill="#fcfaf6" stroke="#263248" stroke-width="2"/><rect x="580" y="206.301200" width="20" height="52.698800" fill="#cbd3e4"/><circle cx="590" cy="259" r="16" fill="#cbd3e4"/><line x1="580" y1="206.3012" x2="600" y2="206.3012" stroke="#263248" stroke-width="2.5" stroke-dasharray=""/><line x1="567" y1="187.8" x2="613" y2="187.8" stroke="#667085" stroke-width="1.2" stroke-dasharray="4 3"/><line x1="630" y1="233.064" x2="630" y2="184.488" stroke="#263248" stroke-width="3" stroke-dasharray=""/><line x1="621" y1="233.064" x2="639" y2="233.064" stroke="#263248" stroke-width="3" stroke-dasharray=""/><line x1="621" y1="184.488" x2="639" y2="184.488" stroke="#263248" stroke-width="3" stroke-dasharray=""/></g><text x="590" y="300" font-size="23" fill="#263248" text-anchor="middle" font-weight="700">1910s</text><text x="590" y="330" font-size="23" fill="#263248" text-anchor="middle" font-weight="400">-0.34°C</text><g data-glyph="mean-range" data-decade="1920" data-mean="-0.2403333333333333333333333333" data-min="-0.58" data-max="0.21" data-domain-low="-1" data-domain-high="1.5" data-top="105" data-bottom="243" data-level="201.066400" data-range-low="219.816000" data-range-high="176.208000"><rect x="729" y="98" width="30" height="163" rx="15" fill="#fcfaf6" stroke="#263248" stroke-width="2"/><circle cx="744" cy="259" r="21" fill="#fcfaf6" stroke="#263248" stroke-width="2"/><rect x="734" y="201.066400" width="20" height="57.933600" fill="#d7ddea"/><circle cx="744" cy="259" r="16" fill="#d7ddea"/><line x1="734" y1="201.0664" x2="754" y2="201.0664" stroke="#263248" stroke-width="2.5" stroke-dasharray=""/><line x1="721" y1="187.8" x2="767" y2="187.8" stroke="#667085" stroke-width="1.2" stroke-dasharray="4 3"/><line x1="784" y1="219.816" x2="784" y2="176.208" stroke="#263248" stroke-width="3" stroke-dasharray=""/><line x1="775" y1="219.816" x2="793" y2="219.816" stroke="#263248" stroke-width="3" stroke-dasharray=""/><line x1="775" y1="176.208" x2="793" y2="176.208" stroke="#263248" stroke-width="3" stroke-dasharray=""/></g><text x="744" y="300" font-size="23" fill="#263248" text-anchor="middle" font-weight="700">1920s</text><text x="744" y="330" font-size="23" fill="#263248" text-anchor="middle" font-weight="400">-0.24°C</text><g data-glyph="mean-range" data-decade="1930" data-mean="-0.1249166666666666666666666667" data-min="-0.45" data-max="0.42" data-domain-low="-1" data-domain-high="1.5" data-top="105" data-bottom="243" data-level="194.695400" data-range-low="212.640000" data-range-high="164.616000"><rect x="883" y="98" width="30" height="163" rx="15" fill="#fcfaf6" stroke="#263248" stroke-width="2"/><circle cx="898" cy="259" r="21" fill="#fcfaf6" stroke="#263248" stroke-width="2"/><rect x="888" y="194.695400" width="20" height="64.304600" fill="#e7eaf0"/><circle cx="898" cy="259" r="16" fill="#e7eaf0"/><line x1="888" y1="194.6954" x2="908" y2="194.6954" stroke="#263248" stroke-width="2.5" stroke-dasharray=""/><line x1="875" y1="187.8" x2="921" y2="187.8" stroke="#667085" stroke-width="1.2" stroke-dasharray="4 3"/><line x1="938" y1="212.64" x2="938" y2="164.616" stroke="#263248" stroke-width="3" stroke-dasharray=""/><line x1="929" y1="212.64" x2="947" y2="212.64" stroke="#263248" stroke-width="3" stroke-dasharray=""/><line x1="929" y1="164.616" x2="947" y2="164.616" stroke="#263248" stroke-width="3" stroke-dasharray=""/></g><text x="898" y="300" font-size="23" fill="#263248" text-anchor="middle" font-weight="700">1930s</text><text x="898" y="330" font-size="23" fill="#263248" text-anchor="middle" font-weight="400">-0.12°C</text><g data-glyph="mean-range" data-decade="1940" data-mean="0.04258333333333333333333333333" data-min="-0.31" data-max="0.36" data-domain-low="-1" data-domain-high="1.5" data-top="105" data-bottom="243" data-level="185.449400" data-range-low="204.912000" data-range-high="167.928000"><rect x="1037" y="98" width="30" height="163" rx="15" fill="#fcfaf6" stroke="#263248" stroke-width="2"/><circle cx="1052" cy="259" r="21" fill="#fcfaf6" stroke="#263248" stroke-width="2"/><rect x="1042" y="185.449400" width="20" height="73.550600" fill="#f6f2f3"/><circle cx="1052" cy="259" r="16" fill="#f6f2f3"/><line x1="1042" y1="185.4494" x2="1062" y2="185.4494" stroke="#263248" stroke-width="2.5" stroke-dasharray=""/><line x1="1029" y1="187.8" x2="1075" y2="187.8" stroke="#667085" stroke-width="1.2" stroke-dasharray="4 3"/><line x1="1092" y1="204.912" x2="1092" y2="167.928" stroke="#263248" stroke-width="3" stroke-dasharray=""/><line x1="1083" y1="204.912" x2="1101" y2="204.912" stroke="#263248" stroke-width="3" stroke-dasharray=""/><line x1="1083" y1="167.928" x2="1101" y2="167.928" stroke="#263248" stroke-width="3" stroke-dasharray=""/></g><text x="1052" y="300" font-size="23" fill="#263248" text-anchor="middle" font-weight="700">1940s</text><text x="1052" y="330" font-size="23" fill="#263248" text-anchor="middle" font-weight="400">+0.04°C</text><line x1="78" y1="501.0" x2="1120" y2="501.0" stroke="#d8dbe4" stroke-width="1.5" stroke-dasharray=""/><text x="64" y="508.0" font-size="20" fill="#667085" text-anchor="end" font-weight="400">-1.0</text><line x1="78" y1="445.8" x2="1120" y2="445.8" stroke="#667085" stroke-width="1.5" stroke-dasharray="5 4"/><text x="64" y="452.8" font-size="20" fill="#667085" text-anchor="end" font-weight="400">0</text><line x1="78" y1="363.0" x2="1120" y2="363.0" stroke="#d8dbe4" stroke-width="1.5" stroke-dasharray=""/><text x="64" y="370.0" font-size="20" fill="#667085" text-anchor="end" font-weight="400">+1.5</text><g data-glyph="mean-range" data-decade="1950" data-mean="-0.04791666666666666666666666667" data-min="-0.41" data-max="0.39" data-domain-low="-1" data-domain-high="1.5" data-top="363" data-bottom="501" data-level="448.445000" data-range-low="468.432000" data-range-high="424.272000"><rect x="113" y="356" width="30" height="163" rx="15" fill="#fcfaf6" stroke="#263248" stroke-width="2"/><circle cx="128" cy="517" r="21" fill="#fcfaf6" stroke="#263248" stroke-width="2"/><rect x="118" y="448.445000" width="20" height="68.555000" fill="#f1f2f4"/><circle cx="128" cy="517" r="16" fill="#f1f2f4"/><line x1="118" y1="448.445" x2="138" y2="448.445" stroke="#263248" stroke-width="2.5" stroke-dasharray=""/><line x1="105" y1="445.8" x2="151" y2="445.8" stroke="#667085" stroke-width="1.2" stroke-dasharray="4 3"/><line x1="168" y1="468.432" x2="168" y2="424.272" stroke="#263248" stroke-width="3" stroke-dasharray=""/><line x1="159" y1="468.432" x2="177" y2="468.432" stroke="#263248" stroke-width="3" stroke-dasharray=""/><line x1="159" y1="424.272" x2="177" y2="424.272" stroke="#263248" stroke-width="3" stroke-dasharray=""/></g><text x="128" y="558" font-size="23" fill="#263248" text-anchor="middle" font-weight="700">1950s</text><text x="128" y="588" font-size="23" fill="#263248" text-anchor="middle" font-weight="400">-0.05°C</text><g data-glyph="mean-range" data-decade="1960" data-mean="-0.03008333333333333333333333333" data-min="-0.35" data-max="0.24" data-domain-low="-1" data-domain-high="1.5" data-top="363" data-bottom="501" data-level="447.460600" data-range-low="465.120000" data-range-high="432.552000"><rect x="267" y="356" width="30" height="163" rx="15" fill="#fcfaf6" stroke="#263248" stroke-width="2"/><circle cx="282" cy="517" r="21" fill="#fcfaf6" stroke="#263248" stroke-width="2"/><rect x="272" y="447.460600" width="20" height="69.539400" fill="#f3f4f5"/><circle cx="282" cy="517" r="16" fill="#f3f4f5"/><line x1="272" y1="447.4606" x2="292" y2="447.4606" stroke="#263248" stroke-width="2.5" stroke-dasharray=""/><line x1="259" y1="445.8" x2="305" y2="445.8" stroke="#667085" stroke-width="1.2" stroke-dasharray="4 3"/><line x1="322" y1="465.12" x2="322" y2="432.552" stroke="#263248" stroke-width="3" stroke-dasharray=""/><line x1="313" y1="465.12" x2="331" y2="465.12" stroke="#263248" stroke-width="3" stroke-dasharray=""/><line x1="313" y1="432.552" x2="331" y2="432.552" stroke="#263248" stroke-width="3" stroke-dasharray=""/></g><text x="282" y="558" font-size="23" fill="#263248" text-anchor="middle" font-weight="700">1960s</text><text x="282" y="588" font-size="23" fill="#263248" text-anchor="middle" font-weight="400">-0.03°C</text><g data-glyph="mean-range" data-decade="1970" data-mean="0.0345" data-min="-0.27" data-max="0.47" data-domain-low="-1" data-domain-high="1.5" data-top="363" data-bottom="501" data-level="443.895600" data-range-low="460.704000" data-range-high="419.856000"><rect x="421" y="356" width="30" height="163" rx="15" fill="#fcfaf6" stroke="#263248" stroke-width="2"/><circle cx="436" cy="517" r="21" fill="#fcfaf6" stroke="#263248" stroke-width="2"/><rect x="426" y="443.895600" width="20" height="73.104400" fill="#f6f3f3"/><circle cx="436" cy="517" r="16" fill="#f6f3f3"/><line x1="426" y1="443.8956" x2="446" y2="443.8956" stroke="#263248" stroke-width="2.5" stroke-dasharray=""/><line x1="413" y1="445.8" x2="459" y2="445.8" stroke="#667085" stroke-width="1.2" stroke-dasharray="4 3"/><line x1="476" y1="460.704" x2="476" y2="419.856" stroke="#263248" stroke-width="3" stroke-dasharray=""/><line x1="467" y1="460.704" x2="485" y2="460.704" stroke="#263248" stroke-width="3" stroke-dasharray=""/><line x1="467" y1="419.856" x2="485" y2="419.856" stroke="#263248" stroke-width="3" stroke-dasharray=""/></g><text x="436" y="558" font-size="23" fill="#263248" text-anchor="middle" font-weight="700">1970s</text><text x="436" y="588" font-size="23" fill="#263248" text-anchor="middle" font-weight="400">+0.03°C</text><g data-glyph="mean-range" data-decade="1980" data-mean="0.24725" data-min="-0.04" data-max="0.57" data-domain-low="-1" data-domain-high="1.5" data-top="363" data-bottom="501" data-level="432.151800" data-range-low="448.008000" data-range-high="414.336000"><rect x="575" y="356" width="30" height="163" rx="15" fill="#fcfaf6" stroke="#263248" stroke-width="2"/><circle cx="590" cy="517" r="21" fill="#fcfaf6" stroke="#263248" stroke-width="2"/><rect x="580" y="432.151800" width="20" height="84.848200" fill="#efdadd"/><circle cx="590" cy="517" r="16" fill="#efdadd"/><line x1="580" y1="432.1518" x2="600" y2="432.1518" stroke="#263248" stroke-width="2.5" stroke-dasharray=""/><line x1="567" y1="445.8" x2="613" y2="445.8" stroke="#667085" stroke-width="1.2" stroke-dasharray="4 3"/><line x1="630" y1="448.008" x2="630" y2="414.336" stroke="#263248" stroke-width="3" stroke-dasharray=""/><line x1="621" y1="448.008" x2="639" y2="448.008" stroke="#263248" stroke-width="3" stroke-dasharray=""/><line x1="621" y1="414.336" x2="639" y2="414.336" stroke="#263248" stroke-width="3" stroke-dasharray=""/></g><text x="590" y="558" font-size="23" fill="#263248" text-anchor="middle" font-weight="700">1980s</text><text x="590" y="588" font-size="23" fill="#263248" text-anchor="middle" font-weight="400">+0.25°C</text><g data-glyph="mean-range" data-decade="1990" data-mean="0.3870833333333333333333333333" data-min="-0.01" data-max="0.88" data-domain-low="-1" data-domain-high="1.5" data-top="363" data-bottom="501" data-level="424.433000" data-range-low="446.352000" data-range-high="397.224000"><rect x="729" y="356" width="30" height="163" rx="15" fill="#fcfaf6" stroke="#263248" stroke-width="2"/><circle cx="744" cy="517" r="21" fill="#fcfaf6" stroke="#263248" stroke-width="2"/><rect x="734" y="424.433000" width="20" height="92.567000" fill="#ebc9ce"/><circle cx="744" cy="517" r="16" fill="#ebc9ce"/><line x1="734" y1="424.433" x2="754" y2="424.433" stroke="#263248" stroke-width="2.5" stroke-dasharray=""/><line x1="721" y1="445.8" x2="767" y2="445.8" stroke="#667085" stroke-width="1.2" stroke-dasharray="4 3"/><line x1="784" y1="446.352" x2="784" y2="397.224" stroke="#263248" stroke-width="3" stroke-dasharray=""/><line x1="775" y1="446.352" x2="793" y2="446.352" stroke="#263248" stroke-width="3" stroke-dasharray=""/><line x1="775" y1="397.224" x2="793" y2="397.224" stroke="#263248" stroke-width="3" stroke-dasharray=""/></g><text x="744" y="558" font-size="23" fill="#263248" text-anchor="middle" font-weight="700">1990s</text><text x="744" y="588" font-size="23" fill="#263248" text-anchor="middle" font-weight="400">+0.39°C</text><g data-glyph="mean-range" data-decade="2000" data-mean="0.5888333333333333333333333333" data-min="0.25" data-max="1.01" data-domain-low="-1" data-domain-high="1.5" data-top="363" data-bottom="501" data-level="413.296400" data-range-low="432.000000" data-range-high="390.048000"><rect x="883" y="356" width="30" height="163" rx="15" fill="#fcfaf6" stroke="#263248" stroke-width="2"/><circle cx="898" cy="517" r="21" fill="#fcfaf6" stroke="#263248" stroke-width="2"/><rect x="888" y="413.296400" width="20" height="103.703600" fill="#e5b1b9"/><circle cx="898" cy="517" r="16" fill="#e5b1b9"/><line x1="888" y1="413.2964" x2="908" y2="413.2964" stroke="#263248" stroke-width="2.5" stroke-dasharray=""/><line x1="875" y1="445.8" x2="921" y2="445.8" stroke="#667085" stroke-width="1.2" stroke-dasharray="4 3"/><line x1="938" y1="432.0" x2="938" y2="390.048" stroke="#263248" stroke-width="3" stroke-dasharray=""/><line x1="929" y1="432.0" x2="947" y2="432.0" stroke="#263248" stroke-width="3" stroke-dasharray=""/><line x1="929" y1="390.048" x2="947" y2="390.048" stroke="#263248" stroke-width="3" stroke-dasharray=""/></g><text x="898" y="558" font-size="23" fill="#263248" text-anchor="middle" font-weight="700">2000s</text><text x="898" y="588" font-size="23" fill="#263248" text-anchor="middle" font-weight="400">+0.59°C</text><g data-glyph="mean-range" data-decade="2010" data-mean="0.8060833333333333333333333333" data-min="0.45" data-max="1.37" data-domain-low="-1" data-domain-high="1.5" data-top="363" data-bottom="501" data-level="401.304200" data-range-low="420.960000" data-range-high="370.176000"><rect x="1037" y="356" width="30" height="163" rx="15" fill="#fcfaf6" stroke="#263248" stroke-width="2"/><circle cx="1052" cy="517" r="21" fill="#fcfaf6" stroke="#263248" stroke-width="2"/><rect x="1042" y="401.304200" width="20" height="115.695800" fill="#de97a3"/><circle cx="1052" cy="517" r="16" fill="#de97a3"/><line x1="1042" y1="401.3042" x2="1062" y2="401.3042" stroke="#263248" stroke-width="2.5" stroke-dasharray=""/><line x1="1029" y1="445.8" x2="1075" y2="445.8" stroke="#667085" stroke-width="1.2" stroke-dasharray="4 3"/><line x1="1092" y1="420.96000000000004" x2="1092" y2="370.176" stroke="#263248" stroke-width="3" stroke-dasharray=""/><line x1="1083" y1="420.96000000000004" x2="1101" y2="420.96000000000004" stroke="#263248" stroke-width="3" stroke-dasharray=""/><line x1="1083" y1="370.176" x2="1101" y2="370.176" stroke="#263248" stroke-width="3" stroke-dasharray=""/></g><text x="1052" y="558" font-size="23" fill="#263248" text-anchor="middle" font-weight="700">2010s</text><text x="1052" y="588" font-size="23" fill="#263248" text-anchor="middle" font-weight="400">+0.81°C</text><text x="60" y="632" font-size="24" fill="#263248" text-anchor="start" font-weight="400">Liquid top + color: decade mean   |   Bracket: lowest to highest month</text><text x="60" y="669" font-size="22" fill="#667085" text-anchor="start" font-weight="400">Read left to right, then continue on the next row. Ranges describe observed variation.</text></g></svg>