<svg xmlns="http://www.w3.org/2000/svg" viewBox="0 0 1160 460" role="img"><title>Selecting and simplifying a wind pictogram while keeping Denmark’s 58.2% value unchanged.</title><g font-family="Arial, sans-serif"><text x="20" y="32" font-size="28" fill="#263248" text-anchor="start" font-weight="700">Detailed turbine</text><g transform="translate(122 80) scale(2.5)" fill="none" stroke="#258276" stroke-width="3.2" stroke-linecap="round" stroke-linejoin="round"><path d="M30 25V55M30 25L27 3L35 5L32 25M30 25L9 35L7 28L29 23M30 25L47 40L51 34L32 23M20 55H40"/><circle cx="30" cy="25" r="3"/><path d="M29 34H31M29 41H31M27 49H33M25 10L31 12M15 27L18 31M40 28L38 31M5 50H13M45 52H56"/></g><text x="192" y="271" font-size="29" fill="#263248" text-anchor="middle" font-weight="700">58.2%</text><g transform="translate(145 347) scale(0.5333333333333333)" fill="none" stroke="#258276" stroke-width="3.2" stroke-linecap="round" stroke-linejoin="round"><path d="M30 25V55M30 25L27 3L35 5L32 25M30 25L9 35L7 28L29 23M30 25L47 40L51 34L32 23M20 55H40"/><circle cx="30" cy="25" r="3"/><path d="M29 34H31M29 41H31M27 49H33M25 10L31 12M15 27L18 31M40 28L38 31M5 50H13M45 52H56"/></g><text x="410" y="32" font-size="28" fill="#263248" text-anchor="start" font-weight="700">Simplified turbine</text><g transform="translate(512 80) scale(2.5)" fill="none" stroke="#258276" stroke-width="3.2" stroke-linecap="round" stroke-linejoin="round"><path d="M30 25V55M30 25L27 3L35 5L32 25M30 25L9 35L7 28L29 23M30 25L47 40L51 34L32 23M20 55H40"/><circle cx="30" cy="25" r="3"/></g><text x="582" y="271" font-size="29" fill="#263248" text-anchor="middle" font-weight="700">58.2%</text><g transform="translate(535 347) scale(0.5333333333333333)" fill="none" stroke="#258276" stroke-width="3.2" stroke-linecap="round" stroke-linejoin="round"><path d="M30 25V55M30 25L27 3L35 5L32 25M30 25L9 35L7 28L29 23M30 25L47 40L51 34L32 23M20 55H40"/><circle cx="30" cy="25" r="3"/></g><text x="800" y="32" font-size="28" fill="#263248" text-anchor="start" font-weight="700">Symbol + category label</text><g transform="translate(902 80) scale(2.5)" fill="none" stroke="#258276" stroke-width="3.2" stroke-linecap="round" stroke-linejoin="round"><path d="M30 25V55M30 25L27 3L35 5L32 25M30 25L9 35L7 28L29 23M30 25L47 40L51 34L32 23M20 55H40"/><circle cx="30" cy="25" r="3"/></g><text x="972" y="271" font-size="29" fill="#263248" text-anchor="middle" font-weight="700">58.2%</text><text x="972" y="318" font-size="25" fill="#263248" text-anchor="middle" font-weight="400">Wind · Denmark, 2024</text><g transform="translate(925 347) scale(0.5333333333333333)" fill="none" stroke="#258276" stroke-width="3.2" stroke-linecap="round" stroke-linejoin="round"><path d="M30 25V55M30 25L27 3L35 5L32 25M30 25L9 35L7 28L29 23M30 25L47 40L51 34L32 23M20 55H40"/><circle cx="30" cy="25" r="3"/></g><text x="971" y="373" font-size="25" fill="#263248" text-anchor="start" font-weight="400">Wind</text><text x="20" y="431" font-size="25" fill="#667085" text-anchor="start" font-weight="400">Small details may disappear.</text><text x="410" y="431" font-size="25" fill="#667085" text-anchor="start" font-weight="400">Retain the identifying silhouette.</text><text x="800" y="431" font-size="25" fill="#667085" text-anchor="start" font-weight="400">Words clarify the category.</text></g></svg>
