<svg xmlns="http://www.w3.org/2000/svg" viewBox="0 0 1000 518" role="img"><title>Eight selected countries ranked by wind share on a shared zero-to-100-percent length scale.</title><g font-family="Arial, sans-serif"><text x="25" y="31" font-size="30" fill="#263248" text-anchor="start" font-weight="700">Wind share of domestic generation · 2024</text><text x="25" y="90" font-size="27" fill="#263248" text-anchor="start" font-weight="400">Denmark</text><rect x="194" y="66" width="390.03707929264124" height="29" fill="#258276"/><text x="956" y="90" font-size="27" fill="#263248" text-anchor="end" font-weight="400">58.2%</text><text x="25" y="138" font-size="27" fill="#263248" text-anchor="start" font-weight="400">Germany</text><rect x="194" y="114" width="191.2780499606847" height="29" fill="#258276"/><text x="956" y="138" font-size="27" fill="#263248" text-anchor="end" font-weight="400">28.5%</text><text x="25" y="186" font-size="27" fill="#263248" text-anchor="start" font-weight="400">Sweden</text><rect x="194" y="162" width="157.42956723787395" height="29" fill="#258276"/><text x="956" y="186" font-size="27" fill="#263248" text-anchor="end" font-weight="400">23.5%</text><text x="25" y="234" font-size="27" fill="#263248" text-anchor="start" font-weight="400">Spain</text><rect x="194" y="210" width="148.3377233573005" height="29" fill="#258276"/><text x="956" y="234" font-size="27" fill="#263248" text-anchor="end" font-weight="400">22.1%</text><text x="25" y="282" font-size="27" fill="#263248" text-anchor="start" font-weight="400">Poland</text><rect x="194" y="258" width="100.78026957936324" height="29" fill="#258276"/><text x="956" y="282" font-size="27" fill="#263248" text-anchor="end" font-weight="400">15.0%</text><text x="25" y="330" font-size="27" fill="#263248" text-anchor="start" font-weight="400">Norway</text><rect x="194" y="306" width="62.262109350136846" height="29" fill="#258276"/><text x="956" y="330" font-size="27" fill="#263248" text-anchor="end" font-weight="400">9.3%</text><text x="25" y="378" font-size="27" fill="#263248" text-anchor="start" font-weight="400">Italy</text><rect x="194" y="354" width="55.6413514725669" height="29" fill="#258276"/><text x="956" y="378" font-size="27" fill="#263248" text-anchor="end" font-weight="400">8.3%</text><text x="25" y="426" font-size="27" fill="#263248" text-anchor="start" font-weight="400">France</text><rect x="194" y="402" width="54.18153013635231" height="29" fill="#258276"/><text x="956" y="426" font-size="27" fill="#263248" text-anchor="end" font-weight="400">8.1%</text><line x1="194" y1="456" x2="864" y2="456" stroke="#d8dbe4" stroke-width="1.5" stroke-dasharray=""/><text x="194" y="489" font-size="24" fill="#667085" text-anchor="start" font-weight="400">0</text><text x="864" y="489" font-size="24" fill="#667085" text-anchor="end" font-weight="400">100%</text></g></svg>
