<svg xmlns="http://www.w3.org/2000/svg" viewBox="0 0 1160 595" role="img"><title>Denmark with identical values but different category order; standardized order supports correspondence across country pies.</title><g font-family="Arial, sans-serif"><text x="25" y="31" font-size="29" fill="#263248" text-anchor="start" font-weight="700">Fixed order across countries</text><text x="640" y="31" font-size="29" fill="#263248" text-anchor="start" font-weight="700">Sorted separately in each country</text><g data-glyph="pie" data-country="Denmark" data-radius="137" data-cx="262" data-cy="231" data-order="0,1,2,3,4,5,6,7,8"><path data-source="0" data-share="4.991443240159726183685111238" data-start="-1.5707963267948966" data-end="-1.257174698512972" d="M262,231 L262.00000,94.00000 A137,137 0 0,1 304.26527,100.68252 Z" fill="#485465" stroke="#fcfaf6" stroke-width="0.6"/><path data-source="1" data-share="2.595550484883057615516257844" data-start="-1.257174698512972" data-end="-1.0940914518063711" d="M262,231 L304.26527,100.68252 A137,137 0 0,1 324.86299,109.27389 Z" fill="#b86f16" stroke="#fcfaf6" stroke-width="0.6"/><path data-source="2" data-share="3.223046206503137478608100399" data-start="-1.0940914518063711" data-end="-0.8915814861157569" d="M262,231 L324.86299,109.27389 A137,137 0 0,1 348.06098,124.40493 Z" fill="#8c564b" stroke="#fcfaf6" stroke-width="0.6"/><path data-source="4" data-share="0.05704506560182544209925841415" data-start="-0.8915814861157569" data-end="-0.8879972389353921" d="M262,231 L348.06098,124.40493 A137,137 0 0,1 348.44249,124.71408 Z" fill="#3157a4" stroke="#fcfaf6" stroke-width="0.6"/><path data-source="5" data-share="58.21448944666286366229321164" data-start="-0.8879972389353921" data-end="2.7697270086269397" d="M262,231 L348.44249,124.71408 A137,137 0 1,1 134.36380,280.77952 Z" fill="#258276" stroke="#fcfaf6" stroke-width="0.6"/><path data-source="6" data-share="10.78151739874500855675984027" data-start="2.7697270086269397" data-end="3.4471497257158967" d="M262,231 L134.36380,280.77952 A137,137 0 0,1 131.34591,189.78704 Z" fill="#c9455a" stroke="#fcfaf6" stroke-width="0.6"/><path data-source="7" data-share="20.13690815744438106103822019" data-start="3.4471497257158967" data-end="4.71238898038469" d="M262,231 L131.34591,189.78704 A137,137 0 0,1 262.00000,94.00000 Z" fill="#7b873d" stroke="#fcfaf6" stroke-width="0.6"/><circle cx="262" cy="231" r="137" fill="none" stroke="#263248" stroke-width="0.7"/></g><g data-glyph="pie" data-country="Denmark" data-radius="137" data-cx="876" data-cy="231" data-order="5,7,6,0,2,1,4,3,8"><path data-source="5" data-share="58.21448944666286366229321164" data-start="-1.5707963267948966" data-end="2.0869279207674354" d="M876,231 L876.00000,94.00000 A137,137 0 1,1 808.38785,350.15367 Z" fill="#258276" stroke="#fcfaf6" stroke-width="0.6"/><path data-source="7" data-share="20.13690815744438106103822019" data-start="2.0869279207674354" data-end="3.3521671754362283" d="M876,231 L808.38785,350.15367 A137,137 0 0,1 742.02619,202.36402 Z" fill="#7b873d" stroke="#fcfaf6" stroke-width="0.6"/><path data-source="6" data-share="10.78151739874500855675984027" data-start="3.3521671754362283" data-end="4.029589892525186" d="M876,231 L742.02619,202.36402 A137,137 0 0,1 789.55751,124.71408 Z" fill="#c9455a" stroke="#fcfaf6" stroke-width="0.6"/><path data-source="0" data-share="4.991443240159726183685111238" data-start="4.029589892525186" data-end="4.3432115208071105" d="M876,231 L789.55751,124.71408 A137,137 0 0,1 826.56376,103.23045 Z" fill="#485465" stroke="#fcfaf6" stroke-width="0.6"/><path data-source="2" data-share="3.223046206503137478608100399" data-start="4.3432115208071105" data-end="4.545721486497724" d="M876,231 L826.56376,103.23045 A137,137 0 0,1 853.27212,95.89840 Z" fill="#8c564b" stroke="#fcfaf6" stroke-width="0.6"/><path data-source="1" data-share="2.595550484883057615516257844" data-start="4.545721486497724" data-end="4.708804733204325" d="M876,231 L853.27212,95.89840 A137,137 0 0,1 875.50896,94.00088 Z" fill="#b86f16" stroke="#fcfaf6" stroke-width="0.6"/><path data-source="4" data-share="0.05704506560182544209925841415" data-start="4.708804733204325" data-end="4.71238898038469" d="M876,231 L875.50896,94.00088 A137,137 0 0,1 876.00000,94.00000 Z" fill="#3157a4" stroke="#fcfaf6" stroke-width="0.6"/><circle cx="876" cy="231" r="137" fill="none" stroke="#263248" stroke-width="0.7"/></g><text x="25" y="425" font-size="25" fill="#263248" text-anchor="start" font-weight="400">Same category sequence and start angle.</text><text x="640" y="425" font-size="25" fill="#263248" text-anchor="start" font-weight="400">The same source moves to a new position.</text><text x="25" y="478" font-size="26" fill="#263248" text-anchor="start" font-weight="700">Both circles show Denmark’s same values. Keep the mapping stable for comparison.</text><rect x="25" y="521" width="18" height="18" fill="#485465"/><text x="54" y="539" font-size="22" fill="#263248" text-anchor="start" font-weight="400">Coal</text><rect x="255" y="521" width="18" height="18" fill="#b86f16"/><text x="284" y="539" font-size="22" fill="#263248" text-anchor="start" font-weight="400">Gas</text><rect x="485" y="521" width="18" height="18" fill="#8c564b"/><text x="514" y="539" font-size="22" fill="#263248" text-anchor="start" font-weight="400">Oil</text><rect x="715" y="521" width="18" height="18" fill="#7656a6"/><text x="744" y="539" font-size="22" fill="#263248" text-anchor="start" font-weight="400">Nuclear</text><rect x="945" y="521" width="18" height="18" fill="#3157a4"/><text x="974" y="539" font-size="22" fill="#263248" text-anchor="start" font-weight="400">Hydro</text><rect x="25" y="558" width="18" height="18" fill="#258276"/><text x="54" y="576" font-size="22" fill="#263248" text-anchor="start" font-weight="400">Wind</text><rect x="255" y="558" width="18" height="18" fill="#c9455a"/><text x="284" y="576" font-size="22" fill="#263248" text-anchor="start" font-weight="400">Solar</text><rect x="485" y="558" width="18" height="18" fill="#7b873d"/><text x="514" y="576" font-size="22" fill="#263248" text-anchor="start" font-weight="400">Bioenergy</text><rect x="715" y="558" width="18" height="18" fill="#8798ab"/><text x="744" y="576" font-size="22" fill="#263248" text-anchor="start" font-weight="400">Other renew.</text></g></svg>
