<svg xmlns="http://www.w3.org/2000/svg" viewBox="0 0 1160 564" role="img"><title>France electricity shares as a linear bar glyph and fixed-angle radial bars. Radial extension from the common inner zero ring is linear in share on a 0–100 percent scale; pale full-length tracks indicate category slots only.</title><g font-family="Arial, sans-serif"><text x="20" y="31" font-size="29" fill="#263248" text-anchor="start" font-weight="700">Bar glyph · France, 2024</text><text x="625" y="31" font-size="29" fill="#263248" text-anchor="start" font-weight="700">Radial bar glyph · same data</text><text x="625" y="66" font-size="23" fill="#667085" text-anchor="start" font-weight="400">Length from the inner ring = share</text><text x="20" y="106" font-size="23" fill="#263248" text-anchor="start" font-weight="400">Coal</text><rect data-linear-source="0" data-share="0.1815657374773042828153369646" x="185" y="86" width="0.4902274911887216" height="23" fill="#485465"/><text x="545" y="106" font-size="23" fill="#263248" text-anchor="end" font-weight="400">0.2%</text><text x="20" y="140" font-size="23" fill="#263248" text-anchor="start" font-weight="400">Gas</text><rect data-linear-source="1" data-share="3.221901812097262273487842216" x="185" y="120" width="8.699134892662608" height="23" fill="#b86f16"/><text x="545" y="140" font-size="23" fill="#263248" text-anchor="end" font-weight="400">3.2%</text><text x="20" y="174" font-size="23" fill="#263248" text-anchor="start" font-weight="400">Oil</text><rect data-linear-source="2" data-share="1.698173662287728292214033963" x="185" y="154" width="4.585068888176867" height="23" fill="#8c564b"/><text x="545" y="174" font-size="23" fill="#263248" text-anchor="end" font-weight="400">1.7%</text><text x="20" y="208" font-size="23" fill="#263248" text-anchor="start" font-weight="400">Nuclear</text><rect data-linear-source="3" data-share="67.72224002278471999715191000" x="185" y="188" width="182.85004806151875" height="23" fill="#7656a6"/><text x="545" y="208" font-size="23" fill="#263248" text-anchor="end" font-weight="400">67.7%</text><text x="20" y="242" font-size="23" fill="#263248" text-anchor="start" font-weight="400">Hydro</text><rect data-linear-source="4" data-share="12.65976004841752999394780875" x="185" y="222" width="34.18135213072733" height="23" fill="#3157a4"/><text x="545" y="242" font-size="23" fill="#263248" text-anchor="end" font-weight="400">12.7%</text><text x="20" y="276" font-size="23" fill="#263248" text-anchor="start" font-weight="400">Wind</text><rect data-linear-source="5" data-share="8.086795542739150557157606180" x="185" y="256" width="21.834347965395708" height="23" fill="#258276"/><text x="545" y="276" font-size="23" fill="#263248" text-anchor="end" font-weight="400">8.1%</text><text x="20" y="310" font-size="23" fill="#263248" text-anchor="start" font-weight="400">Solar</text><rect data-linear-source="6" data-share="4.426999893196625013350421873" x="185" y="290" width="11.95289971163089" height="23" fill="#c9455a"/><text x="545" y="310" font-size="23" fill="#263248" text-anchor="end" font-weight="400">4.4%</text><text x="20" y="344" font-size="23" fill="#263248" text-anchor="start" font-weight="400">Bioenergy</text><rect data-linear-source="7" data-share="1.901100074762362490654704689" x="185" y="324" width="5.132970201858379" height="23" fill="#7b873d"/><text x="545" y="344" font-size="23" fill="#263248" text-anchor="end" font-weight="400">1.9%</text><text x="20" y="378" font-size="23" fill="#263248" text-anchor="start" font-weight="400">Other renew.</text><rect data-linear-source="8" data-share="0.1014632062373170992203353626" x="185" y="358" width="0.2739506568407562" height="23" fill="#8798ab"/><text x="545" y="378" font-size="23" fill="#263248" text-anchor="end" font-weight="400">0.1%</text><line x1="185" y1="403" x2="455" y2="403" stroke="#d8dbe4" stroke-width="1.5" stroke-dasharray=""/><text x="185" y="433" font-size="22" fill="#667085" text-anchor="start" font-weight="400">0</text><text x="455" y="433" font-size="22" fill="#667085" text-anchor="end" font-weight="400">100%</text><path data-slot="0" d="M852.059048,218.703709 L826.177143,122.111126 A150.000000,150.000000 0 0,1 903.822857,122.111126 L877.940952,218.703709 A50,50 0 0,0 852.059048,218.703709 Z" fill="#f0ede7"/><path data-slot="1" d="M886.130913,221.684611 L928.392739,131.053832 A150.000000,150.000000 0 0,1 987.872807,180.963535 L905.957602,238.321178 A50,50 0 0,0 886.130913,221.684611 Z" fill="#f0ede7"/><path data-slot="2" d="M910.315389,245.869087 L1000.946168,203.607261 A150.000000,150.000000 0 0,1 1014.429205,280.073361 L914.809735,271.357787 A50,50 0 0,0 910.315389,245.869087 Z" fill="#f0ede7"/><path data-slot="3" d="M913.296291,279.940952 L1009.888874,305.822857 A150.000000,150.000000 0 0,1 971.066017,373.066017 L900.355339,302.355339 A50,50 0 0,0 913.296291,279.940952 Z" fill="#f0ede7"/><path data-slot="4" d="M893.678822,307.957602 L951.036465,389.872807 A150.000000,150.000000 0 0,1 878.073361,416.429205 L869.357787,316.809735 A50,50 0 0,0 893.678822,307.957602 Z" fill="#f0ede7"/><path data-slot="5" d="M860.642213,316.809735 L851.926639,416.429205 A150.000000,150.000000 0 0,1 778.963535,389.872807 L836.321178,307.957602 A50,50 0 0,0 860.642213,316.809735 Z" fill="#f0ede7"/><path data-slot="6" d="M829.644661,302.355339 L758.933983,373.066017 A150.000000,150.000000 0 0,1 720.111126,305.822857 L816.703709,279.940952 A50,50 0 0,0 829.644661,302.355339 Z" fill="#f0ede7"/><path data-slot="7" d="M815.190265,271.357787 L715.570795,280.073361 A150.000000,150.000000 0 0,1 729.053832,203.607261 L819.684611,245.869087 A50,50 0 0,0 815.190265,271.357787 Z" fill="#f0ede7"/><path data-slot="8" d="M824.042398,238.321178 L742.127193,180.963535 A150.000000,150.000000 0 0,1 801.607261,131.053832 L843.869087,221.684611 A50,50 0 0,0 824.042398,238.321178 Z" fill="#f0ede7"/><circle cx="865" cy="267" r="50.0" fill="none" stroke="#667085" stroke-width="1.5"/><circle cx="865" cy="267" r="100.0" fill="none" stroke="#d8dbe4" stroke-width="1"/><circle cx="865" cy="267" r="150.0" fill="none" stroke="#d8dbe4" stroke-width="1"/><g data-glyph="radial-bar" data-country="France" data-domain="0 100" data-inner-radius="50" data-span="100" data-slot-width-degrees="30"><path data-source="0" data-share="0.1815657374773042828153369646" data-radius="50.18156573747731" data-start="-1.832595714594046" data-end="-1.3089969389957472" d="M852.059048,218.703709 L852.012055,218.528330 A50.181566,50.181566 0 0,1 877.987945,218.528330 L877.940952,218.703709 A50,50 0 0,0 852.059048,218.703709 Z" fill="#485465"/><text x="865.0" y="82.0" font-size="21" fill="#263248" text-anchor="middle" font-weight="400">Coal</text><text x="865.0" y="106.0" font-size="21" fill="#667085" text-anchor="middle" font-weight="400">0.2%</text><path data-source="1" data-share="3.221901812097262273487842216" data-radius="53.221901812097265" data-start="-1.1344640137963142" data-end="-0.6108652381980153" d="M886.130913,221.684611 L887.492548,218.764576 A53.221902,53.221902 0 0,1 908.596830,236.473171 L905.957602,238.321178 A50,50 0 0,0 886.130913,221.684611 Z" fill="#b86f16"/><text x="981.9873449629501" y="124.57991135234599" font-size="21" fill="#263248" text-anchor="start" font-weight="400">Gas</text><text x="981.9873449629501" y="148.579911352346" font-size="21" fill="#667085" text-anchor="start" font-weight="400">3.2%</text><path data-source="2" data-share="1.698173662287728292214033963" data-radius="51.69817366228773" data-start="-0.4363323129985824" data-end="0.08726646259971643" d="M910.315389,245.869087 L911.854457,245.151408 A51.698174,51.698174 0 0,1 916.501447,271.505793 L914.809735,271.357787 A50,50 0 0,0 910.315389,245.869087 Z" fill="#8c564b"/><text x="1044.2350110482218" y="232.39603166461868" font-size="21" fill="#263248" text-anchor="start" font-weight="400">Oil</text><text x="1044.2350110482218" y="256.3960316646187" font-size="21" fill="#667085" text-anchor="start" font-weight="400">1.7%</text><path data-source="3" data-share="67.72224002278471999715191000" data-radius="117.72224002278472" data-start="0.2617993877991493" data-end="0.7853981633974481" d="M913.296291,279.940952 L978.710952,297.468758 A117.722240,117.722240 0 0,1 948.242194,350.242194 L900.355339,302.355339 A50,50 0 0,0 913.296291,279.940952 Z" fill="#7656a6"/><text x="1022.6166234887678" y="355.0" font-size="21" fill="#263248" text-anchor="start" font-weight="400">Nuclear</text><text x="1022.6166234887678" y="379.0" font-size="21" fill="#667085" text-anchor="start" font-weight="400">67.7%</text><path data-source="4" data-share="12.65976004841752999394780875" data-radius="62.65976004841753" data-start="0.9599310885968813" data-end="1.48352986419518" d="M893.678822,307.957602 L900.940162,318.327871 A62.659760,62.659760 0 0,1 870.461158,329.421321 L869.357787,316.809735 A50,50 0 0,0 893.678822,307.957602 Z" fill="#3157a4"/><text x="927.2476660852717" y="435.0240569830353" font-size="21" fill="#263248" text-anchor="start" font-weight="400">Hydro</text><text x="927.2476660852717" y="459.0240569830353" font-size="21" fill="#667085" text-anchor="start" font-weight="400">12.7%</text><path data-source="5" data-share="8.086795542739150557157606180" data-radius="58.086795542739154" data-start="1.6580627893946132" data-end="2.181661564992912" d="M860.642213,316.809735 L859.937402,324.865758 A58.086796,58.086796 0 0,1 831.682783,314.581917 L836.321178,307.957602 A50,50 0 0,0 860.642213,316.809735 Z" fill="#258276"/><text x="802.7523339147283" y="435.02405698303534" font-size="21" fill="#263248" text-anchor="end" font-weight="400">Wind</text><text x="802.7523339147283" y="459.02405698303534" font-size="21" fill="#667085" text-anchor="end" font-weight="400">8.1%</text><path data-source="6" data-share="4.426999893196625013350421873" data-radius="54.42699989319662" data-start="2.3561944901923444" data-end="2.8797932657906435" d="M829.644661,302.355339 L826.514299,305.485701 A54.427000,54.427000 0 0,1 812.427555,281.086744 L816.703709,279.940952 A50,50 0 0,0 829.644661,302.355339 Z" fill="#c9455a"/><text x="707.3833765112322" y="355.00000000000006" font-size="21" fill="#263248" text-anchor="end" font-weight="400">Solar</text><text x="707.3833765112322" y="379.00000000000006" font-size="21" fill="#667085" text-anchor="end" font-weight="400">4.4%</text><path data-source="7" data-share="1.901100074762362490654704689" data-radius="51.90110007476236" data-start="3.0543261909900763" data-end="3.5779249665883754" d="M815.190265,271.357787 L813.296399,271.523479 A51.901100,51.901100 0 0,1 817.961629,245.065647 L819.684611,245.869087 A50,50 0 0,0 815.190265,271.357787 Z" fill="#7b873d"/><text x="685.7649889517782" y="232.39603166461873" font-size="21" fill="#263248" text-anchor="end" font-weight="400">Bioenergy</text><text x="685.7649889517782" y="256.3960316646187" font-size="21" fill="#667085" text-anchor="end" font-weight="400">1.9%</text><path data-source="8" data-share="0.1014632062373170992203353626" data-radius="50.10146320623732" data-start="3.752457891787808" data-end="4.276056667386107" d="M824.042398,238.321178 L823.959284,238.262981 A50.101463,50.101463 0 0,1 843.826207,221.592654 L843.869087,221.684611 A50,50 0 0,0 824.042398,238.321178 Z" fill="#8798ab"/><text x="748.0126550370499" y="124.57991135234602" font-size="21" fill="#263248" text-anchor="end" font-weight="400">Other renew.</text><text x="748.0126550370499" y="148.57991135234602" font-size="21" fill="#667085" text-anchor="end" font-weight="400">0.1%</text></g><text x="865" y="274" font-size="21" fill="#667085" text-anchor="middle" font-weight="400">0%</text><text x="963.4807753012208" y="289.364817766693" font-size="16" fill="#667085" text-anchor="middle" font-weight="400">50%</text><text x="1012.7211629518312" y="298.04722665003953" font-size="16" fill="#667085" text-anchor="middle" font-weight="400">100%</text><text x="20" y="489" font-size="23" fill="#263248" text-anchor="start" font-weight="400">Same values, colors and 0–100% scale.</text><text x="625" y="489" font-size="23" fill="#263248" text-anchor="start" font-weight="400">Fixed slots replace narrow pie slices.</text><text x="20" y="535" font-size="24" fill="#263248" text-anchor="start" font-weight="400">Short radial bars still need labels or detail. Read radial length, not sector area.</text></g></svg>
