<svg xmlns="http://www.w3.org/2000/svg" xmlns:xlink="http://www.w3.org/1999/xlink" version="1.1" class="marks" width="513" height="460" viewBox="0 0 513 460"><rect width="513" height="460" fill="#ffffff"/><g fill="none" stroke-miterlimit="4" transform="translate(81,20)"><g class="mark-group role-frame root" role="graphics-object" aria-roledescription="group mark container"><g transform="translate(0,0)"><path class="background" aria-hidden="true" d="M0,0h420v310h-420Z"/><g><g class="mark-group role-axis" aria-hidden="true"><g transform="translate(0.5,0.5)"><path class="background" aria-hidden="true" d="M0,0h0v0h0Z" pointer-events="none"/><g><g class="mark-rule role-axis-grid" pointer-events="none"><line transform="translate(0,310)" x2="420" y2="0" stroke="#e7eaf0" stroke-width="1" opacity="1"/><line transform="translate(0,266)" x2="420" y2="0" stroke="#e7eaf0" stroke-width="1" opacity="1"/><line transform="translate(0,221)" x2="420" y2="0" stroke="#e7eaf0" stroke-width="1" opacity="1"/><line transform="translate(0,177)" x2="420" y2="0" stroke="#e7eaf0" stroke-width="1" opacity="1"/><line transform="translate(0,133)" x2="420" y2="0" stroke="#e7eaf0" stroke-width="1" opacity="1"/><line transform="translate(0,89)" x2="420" y2="0" stroke="#e7eaf0" stroke-width="1" opacity="1"/><line transform="translate(0,44)" x2="420" y2="0" stroke="#e7eaf0" stroke-width="1" opacity="1"/><line transform="translate(0,0)" x2="420" y2="0" stroke="#e7eaf0" stroke-width="1" opacity="1"/></g></g><path class="foreground" aria-hidden="true" d="" pointer-events="none" display="none"/></g></g><g class="mark-group role-axis" role="graphics-symbol" aria-roledescription="axis" aria-label="X-axis titled 'Origin' for a discrete scale with 3 values: Europe, Japan, USA"><g transform="translate(0.5,310.5)"><path class="background" aria-hidden="true" d="M0,0h0v0h0Z" pointer-events="none"/><g><g class="mark-rule role-axis-tick" pointer-events="none"><line transform="translate(70,0)" x2="0" y2="5" stroke="#888" stroke-width="1" opacity="1"/><line transform="translate(210,0)" x2="0" y2="5" stroke="#888" stroke-width="1" opacity="1"/><line transform="translate(350,0)" x2="0" y2="5" stroke="#888" stroke-width="1" opacity="1"/></g><g class="mark-text role-axis-label" pointer-events="none"><text text-anchor="end" transform="translate(69.5,12) rotate(270) translate(0,5)" font-family="Arial" font-size="16px" fill="#263248" opacity="1">Europe</text><text text-anchor="end" transform="translate(209.5,12) rotate(270) translate(0,5)" font-family="Arial" font-size="16px" fill="#263248" opacity="1">Japan</text><text text-anchor="end" transform="translate(349.5,12) rotate(270) translate(0,5)" font-family="Arial" font-size="16px" fill="#263248" opacity="1">USA</text></g><g class="mark-rule role-axis-domain" pointer-events="none"><line transform="translate(0,0)" x2="420" y2="0" stroke="#888" stroke-width="1" opacity="1"/></g><g class="mark-text role-axis-title" pointer-events="none"><text text-anchor="middle" transform="translate(210,115)" font-family="Arial" font-size="17px" font-weight="bold" fill="#17233c" opacity="1">Origin</text></g></g><path class="foreground" aria-hidden="true" d="" pointer-events="none" display="none"/></g></g><g class="mark-group role-axis" role="graphics-symbol" aria-roledescription="axis" aria-label="Y-axis titled 'Mean of Miles_per_Gallon' for a linear scale with values from 0 to 35"><g transform="translate(0.5,0.5)"><path class="background" aria-hidden="true" d="M0,0h0v0h0Z" pointer-events="none"/><g><g class="mark-rule role-axis-tick" pointer-events="none"><line transform="translate(0,310)" x2="-5" y2="0" stroke="#888" stroke-width="1" opacity="1"/><line transform="translate(0,266)" x2="-5" y2="0" stroke="#888" stroke-width="1" opacity="1"/><line transform="translate(0,221)" x2="-5" y2="0" stroke="#888" stroke-width="1" opacity="1"/><line transform="translate(0,177)" x2="-5" y2="0" stroke="#888" stroke-width="1" opacity="1"/><line transform="translate(0,133)" x2="-5" y2="0" stroke="#888" stroke-width="1" opacity="1"/><line transform="translate(0,89)" x2="-5" y2="0" stroke="#888" stroke-width="1" opacity="1"/><line transform="translate(0,44)" x2="-5" y2="0" stroke="#888" stroke-width="1" opacity="1"/><line transform="translate(0,0)" x2="-5" y2="0" stroke="#888" stroke-width="1" opacity="1"/></g><g class="mark-text role-axis-label" pointer-events="none"><text text-anchor="end" transform="translate(-12,315)" font-family="Arial" font-size="16px" fill="#263248" opacity="1">0</text><text text-anchor="end" transform="translate(-12,270.7142857142857)" font-family="Arial" font-size="16px" fill="#263248" opacity="1">5</text><text text-anchor="end" transform="translate(-12,226.42857142857144)" font-family="Arial" font-size="16px" fill="#263248" opacity="1">10</text><text text-anchor="end" transform="translate(-12,182.14285714285714)" font-family="Arial" font-size="16px" fill="#263248" opacity="1">15</text><text text-anchor="end" transform="translate(-12,137.85714285714286)" font-family="Arial" font-size="16px" fill="#263248" opacity="1">20</text><text text-anchor="end" transform="translate(-12,93.57142857142857)" font-family="Arial" font-size="16px" fill="#263248" opacity="1">25</text><text text-anchor="end" transform="translate(-12,49.2857142857143)" font-family="Arial" font-size="16px" fill="#263248" opacity="1">30</text><text text-anchor="end" transform="translate(-12,5)" font-family="Arial" font-size="16px" fill="#263248" opacity="1">35</text></g><g class="mark-rule role-axis-domain" pointer-events="none"><line transform="translate(0,310)" x2="0" y2="-310" stroke="#888" stroke-width="1" opacity="1"/></g><g class="mark-text role-axis-title" pointer-events="none"><text text-anchor="middle" transform="translate(-51,155) rotate(-90) translate(0,-4)" font-family="Arial" font-size="17px" font-weight="bold" fill="#17233c" opacity="1">Mean of Miles_per_Gallon</text></g></g><path class="foreground" aria-hidden="true" d="" pointer-events="none" display="none"/></g></g><g class="mark-rect role-mark marks" role="graphics-object" aria-roledescription="rect mark container"><path aria-label="Origin: USA; Mean of Miles_per_Gallon: 20.0835341365" role="graphics-symbol" aria-roledescription="bar" d="M287,132.11726907630523h126v177.88273092369477h-126Z" fill="#3157a4"/><path aria-label="Origin: Europe; Mean of Miles_per_Gallon: 27.8914285714" role="graphics-symbol" aria-roledescription="bar" d="M7,62.96163265306123h126v247.03836734693877h-126Z" fill="#3157a4"/><path aria-label="Origin: Japan; Mean of Miles_per_Gallon: 30.4506329114" role="graphics-symbol" aria-roledescription="bar" d="M147,40.29439421338151h126v269.7056057866185h-126Z" fill="#3157a4"/></g></g><path class="foreground" aria-hidden="true" d="" display="none"/></g></g></g></svg>