<svg xmlns="http://www.w3.org/2000/svg" viewBox="0 0 900 330" role="img" aria-label="Horsepower values assigned to bins"><rect width="900" height="330" fill="#ffffff"/><line x1="55" y1="105" x2="845" y2="105" stroke="#17233c" stroke-width="3"/><line x1="55" y1="86" x2="55" y2="124" stroke="#d7dbe0"/><text x="55" y="148" text-anchor="middle" font-size="15" fill="#647089">40</text><line x1="142.77777777777777" y1="86" x2="142.77777777777777" y2="124" stroke="#d7dbe0"/><text x="142.77777777777777" y="148" text-anchor="middle" font-size="15" fill="#647089">60</text><line x1="230.55555555555554" y1="86" x2="230.55555555555554" y2="124" stroke="#d7dbe0"/><text x="230.55555555555554" y="148" text-anchor="middle" font-size="15" fill="#647089">80</text><line x1="318.3333333333333" y1="86" x2="318.3333333333333" y2="124" stroke="#d7dbe0"/><text x="318.3333333333333" y="148" text-anchor="middle" font-size="15" fill="#647089">100</text><line x1="406.1111111111111" y1="86" x2="406.1111111111111" y2="124" stroke="#d7dbe0"/><text x="406.1111111111111" y="148" text-anchor="middle" font-size="15" fill="#647089">120</text><line x1="493.8888888888889" y1="86" x2="493.8888888888889" y2="124" stroke="#d7dbe0"/><text x="493.8888888888889" y="148" text-anchor="middle" font-size="15" fill="#647089">140</text><line x1="581.6666666666666" y1="86" x2="581.6666666666666" y2="124" stroke="#d7dbe0"/><text x="581.6666666666666" y="148" text-anchor="middle" font-size="15" fill="#647089">160</text><line x1="669.4444444444445" y1="86" x2="669.4444444444445" y2="124" stroke="#d7dbe0"/><text x="669.4444444444445" y="148" text-anchor="middle" font-size="15" fill="#647089">180</text><line x1="757.2222222222222" y1="86" x2="757.2222222222222" y2="124" stroke="#d7dbe0"/><text x="757.2222222222222" y="148" text-anchor="middle" font-size="15" fill="#647089">200</text><line x1="845" y1="86" x2="845" y2="124" stroke="#d7dbe0"/><text x="845" y="148" text-anchor="middle" font-size="15" fill="#647089">220</text><circle cx="107.66666666666666" cy="78" r="6" fill="#3157a4"/><circle cx="151.55555555555554" cy="60" r="6" fill="#3157a4"/><circle cx="191.05555555555554" cy="78" r="6" fill="#3157a4"/><circle cx="248.11111111111111" cy="60" r="6" fill="#3157a4"/><circle cx="283.2222222222222" cy="78" r="6" fill="#3157a4"/><circle cx="335.8888888888889" cy="60" r="6" fill="#3157a4"/><circle cx="392.9444444444444" cy="78" r="6" fill="#3157a4"/><circle cx="445.61111111111114" cy="60" r="6" fill="#3157a4"/><circle cx="515.8333333333334" cy="78" r="6" fill="#3157a4"/><circle cx="550.9444444444445" cy="60" r="6" fill="#3157a4"/><circle cx="616.7777777777778" cy="78" r="6" fill="#3157a4"/><circle cx="673.8333333333334" cy="60" r="6" fill="#3157a4"/><circle cx="779.1666666666666" cy="78" r="6" fill="#3157a4"/><text x="450" y="190" text-anchor="middle" font-size="26" font-weight="700" fill="#c9455a">bin Horsepower ↓</text><rect x="57" y="220" width="83.77777777777777" height="58" fill="#a99ac5"/><text x="98.88888888888889" y="247" text-anchor="middle" font-size="14" fill="#fff">40–60</text><text x="98.88888888888889" y="270" text-anchor="middle" font-size="15" fill="#fff">1 cars</text><rect x="144.77777777777777" y="220" width="83.77777777777777" height="58" fill="#7656a6"/><text x="186.66666666666666" y="247" text-anchor="middle" font-size="14" fill="#fff">60–80</text><text x="186.66666666666666" y="270" text-anchor="middle" font-size="15" fill="#fff">2 cars</text><rect x="232.55555555555554" y="220" width="83.77777777777777" height="58" fill="#a99ac5"/><text x="274.44444444444446" y="247" text-anchor="middle" font-size="14" fill="#fff">80–100</text><text x="274.44444444444446" y="270" text-anchor="middle" font-size="15" fill="#fff">2 cars</text><rect x="320.3333333333333" y="220" width="83.77777777777777" height="58" fill="#7656a6"/><text x="362.2222222222222" y="247" text-anchor="middle" font-size="14" fill="#fff">100–120</text><text x="362.2222222222222" y="270" text-anchor="middle" font-size="15" fill="#fff">2 cars</text><rect x="408.1111111111111" y="220" width="83.77777777777783" height="58" fill="#a99ac5"/><text x="450" y="247" text-anchor="middle" font-size="14" fill="#fff">120–140</text><text x="450" y="270" text-anchor="middle" font-size="15" fill="#fff">1 cars</text><rect x="495.8888888888889" y="220" width="83.77777777777771" height="58" fill="#7656a6"/><text x="537.7777777777778" y="247" text-anchor="middle" font-size="14" fill="#fff">140–160</text><text x="537.7777777777778" y="270" text-anchor="middle" font-size="15" fill="#fff">2 cars</text><rect x="583.6666666666666" y="220" width="83.77777777777783" height="58" fill="#a99ac5"/><text x="625.5555555555555" y="247" text-anchor="middle" font-size="14" fill="#fff">160–180</text><text x="625.5555555555555" y="270" text-anchor="middle" font-size="15" fill="#fff">1 cars</text><rect x="671.4444444444445" y="220" width="83.77777777777771" height="58" fill="#7656a6"/><text x="713.3333333333333" y="247" text-anchor="middle" font-size="14" fill="#fff">180–200</text><text x="713.3333333333333" y="270" text-anchor="middle" font-size="15" fill="#fff">1 cars</text><rect x="759.2222222222222" y="220" width="83.77777777777783" height="58" fill="#a99ac5"/><text x="801.1111111111111" y="247" text-anchor="middle" font-size="14" fill="#fff">200–220</text><text x="801.1111111111111" y="270" text-anchor="middle" font-size="15" fill="#fff">1 cars</text></svg>