<svg xmlns="http://www.w3.org/2000/svg" width="1000" height="390" viewBox="0 0 1000 390"><rect width="100%" height="100%" fill="#fffdf9"/><g transform="translate(0 35) scale(.48)"><line x1="108.5" y1="34" x2="108.5" y2="364" stroke="#dce2eb"/><text x="108.5" y="386" font-family="Arial,Helvetica,sans-serif" font-size="12" fill="#64728c" font-weight="400" text-anchor="middle">50</text><line x1="271" y1="34" x2="271" y2="364" stroke="#dce2eb"/><text x="271" y="386" font-family="Arial,Helvetica,sans-serif" font-size="12" fill="#64728c" font-weight="400" text-anchor="middle">100</text><line x1="433.50000000000006" y1="34" x2="433.50000000000006" y2="364" stroke="#dce2eb"/><text x="433.50000000000006" y="386" font-family="Arial,Helvetica,sans-serif" font-size="12" fill="#64728c" font-weight="400" text-anchor="middle">150</text><line x1="596" y1="34" x2="596" y2="364" stroke="#dce2eb"/><text x="596" y="386" font-family="Arial,Helvetica,sans-serif" font-size="12" fill="#64728c" font-weight="400" text-anchor="middle">200</text><line x1="76" y1="327.3333333333333" x2="726" y2="327.3333333333333" stroke="#dce2eb"/><text x="67" y="331.3333333333333" font-family="Arial,Helvetica,sans-serif" font-size="12" fill="#64728c" font-weight="400" text-anchor="end">10</text><line x1="76" y1="254" x2="726" y2="254" stroke="#dce2eb"/><text x="67" y="258" font-family="Arial,Helvetica,sans-serif" font-size="12" fill="#64728c" font-weight="400" text-anchor="end">20</text><line x1="76" y1="180.66666666666666" x2="726" y2="180.66666666666666" stroke="#dce2eb"/><text x="67" y="184.66666666666666" font-family="Arial,Helvetica,sans-serif" font-size="12" fill="#64728c" font-weight="400" text-anchor="end">30</text><line x1="76" y1="107.33333333333331" x2="726" y2="107.33333333333331" stroke="#dce2eb"/><text x="67" y="111.33333333333331" font-family="Arial,Helvetica,sans-serif" font-size="12" fill="#64728c" font-weight="400" text-anchor="end">40</text><line x1="76" y1="34" x2="726" y2="34" stroke="#dce2eb"/><text x="67" y="38" font-family="Arial,Helvetica,sans-serif" font-size="12" fill="#64728c" font-weight="400" text-anchor="end">50</text><path d="M76 34V364H726" fill="none" stroke="#17233c" stroke-width="2"/><text x="401" y="407" font-family="Arial,Helvetica,sans-serif" font-size="14" fill="#17233c" font-weight="400" text-anchor="middle">Horsepower</text><text transform="translate(28 199) rotate(-90)" font-family="Arial" font-size="14" fill="#17233c" text-anchor="middle">Miles per gallon</text><circle cx="368.5" cy="268.7" r="3.2" fill="#315cab" opacity="0.82"/><circle cx="482.3" cy="290.7" r="3.2" fill="#315cab" opacity="0.82"/><circle cx="433.5" cy="268.7" r="3.2" fill="#315cab" opacity="0.82"/><circle cx="433.5" cy="283.3" r="3.2" fill="#315cab" opacity="0.82"/><circle cx="401.0" cy="276.0" r="3.2" fill="#315cab" opacity="0.82"/><circle cx="589.5" cy="290.7" r="3.2" fill="#315cab" opacity="0.82"/><circle cx="661.0" cy="298.0" r="3.2" fill="#315cab" opacity="0.82"/><circle cx="644.8" cy="298.0" r="3.2" fill="#315cab" opacity="0.82"/><circle cx="677.3" cy="298.0" r="3.2" fill="#315cab" opacity="0.82"/><circle cx="563.5" cy="290.7" r="3.2" fill="#315cab" opacity="0.82"/><circle cx="498.5" cy="290.7" r="3.2" fill="#315cab" opacity="0.82"/><circle cx="466.0" cy="298.0" r="3.2" fill="#315cab" opacity="0.82"/><circle cx="433.5" cy="290.7" r="3.2" fill="#315cab" opacity="0.82"/><circle cx="677.3" cy="298.0" r="3.2" fill="#315cab" opacity="0.82"/><circle cx="254.8" cy="224.7" r="2.8" fill="#c8cfda" opacity="0.3"/><circle cx="254.8" cy="239.3" r="2.8" fill="#c8cfda" opacity="0.3"/><circle cx="261.3" cy="268.7" r="3.2" fill="#315cab" opacity="0.82"/><circle cx="222.3" cy="246.7" r="2.8" fill="#c8cfda" opacity="0.3"/><circle cx="232.0" cy="202.7" r="2.8" fill="#c8cfda" opacity="0.3"/><circle cx="95.5" cy="210.0" r="2.8" fill="#c8cfda" opacity="0.3"/><circle cx="228.8" cy="217.3" r="2.8" fill="#c8cfda" opacity="0.3"/><circle cx="238.5" cy="224.7" r="2.8" fill="#c8cfda" opacity="0.3"/><circle cx="254.8" cy="217.3" r="2.8" fill="#c8cfda" opacity="0.3"/><circle cx="313.3" cy="210.0" r="2.8" fill="#c8cfda" opacity="0.3"/><circle cx="238.5" cy="246.7" r="2.8" fill="#c8cfda" opacity="0.3"/><circle cx="644.8" cy="327.3" r="3.2" fill="#315cab" opacity="0.82"/><circle cx="596.0" cy="327.3" r="3.2" fill="#315cab" opacity="0.82"/><circle cx="628.5" cy="320.0" r="3.2" fill="#315cab" opacity="0.82"/><circle cx="573.3" cy="334.7" r="2.8" fill="#c8cfda" opacity="0.3"/><circle cx="232.0" cy="202.7" r="2.8" fill="#c8cfda" opacity="0.3"/><circle cx="238.5" cy="195.3" r="2.8" fill="#c8cfda" opacity="0.3"/><circle cx="254.8" cy="217.3" r="2.8" fill="#c8cfda" opacity="0.3"/><circle cx="271.0" cy="261.3" r="3.2" fill="#315cab" opacity="0.82"/><circle cx="287.3" cy="283.3" r="3.2" fill="#315cab" opacity="0.82"/><circle cx="271.0" cy="276.0" r="3.2" fill="#315cab" opacity="0.82"/><circle cx="232.0" cy="261.3" r="3.2" fill="#315cab" opacity="0.82"/><circle cx="271.0" cy="268.7" r="3.2" fill="#315cab" opacity="0.82"/><circle cx="482.3" cy="298.0" r="3.2" fill="#315cab" opacity="0.82"/><circle cx="514.8" cy="298.0" r="3.2" fill="#315cab" opacity="0.82"/><circle cx="443.2" cy="298.0" r="3.2" fill="#315cab" opacity="0.82"/><circle cx="433.5" cy="298.0" r="3.2" fill="#315cab" opacity="0.82"/><circle cx="531.0" cy="312.7" r="3.2" fill="#315cab" opacity="0.82"/><circle cx="498.5" cy="305.3" r="3.2" fill="#315cab" opacity="0.82"/><circle cx="514.8" cy="305.3" r="3.2" fill="#315cab" opacity="0.82"/><circle cx="303.5" cy="268.7" r="3.2" fill="#315cab" opacity="0.82"/><circle cx="180.0" cy="239.3" r="2.8" fill="#c8cfda" opacity="0.3"/><circle cx="271.0" cy="261.3" r="3.2" fill="#315cab" opacity="0.82"/><circle cx="232.0" cy="268.7" r="3.2" fill="#315cab" opacity="0.82"/><circle cx="225.5" cy="232.0" r="2.8" fill="#c8cfda" opacity="0.3"/><circle cx="238.5" cy="195.3" r="2.8" fill="#c8cfda" opacity="0.3"/><circle cx="173.5" cy="180.7" r="2.8" fill="#c8cfda" opacity="0.3"/><circle cx="193.0" cy="180.7" r="2.8" fill="#c8cfda" opacity="0.3"/><circle cx="157.3" cy="173.3" r="2.8" fill="#c8cfda" opacity="0.3"/><circle cx="170.3" cy="144.0" r="2.8" fill="#c8cfda" opacity="0.3"/><circle cx="141.0" cy="202.7" r="2.8" fill="#c8cfda" opacity="0.3"/><circle cx="173.5" cy="210.0" r="2.8" fill="#c8cfda" opacity="0.3"/><circle cx="254.8" cy="224.7" r="2.8" fill="#c8cfda" opacity="0.3"/><circle cx="206.0" cy="217.3" r="2.8" fill="#c8cfda" opacity="0.3"/><circle cx="121.5" cy="232.0" r="2.8" fill="#c8cfda" opacity="0.3"/><circle cx="238.5" cy="254.0" r="3.2" fill="#315cab" opacity="0.82"/><circle cx="225.5" cy="246.7" r="2.8" fill="#c8cfda" opacity="0.3"/><circle cx="482.3" cy="305.3" r="3.2" fill="#315cab" opacity="0.82"/><circle cx="514.8" cy="298.0" r="3.2" fill="#315cab" opacity="0.82"/><circle cx="433.5" cy="290.7" r="3.2" fill="#315cab" opacity="0.82"/><circle cx="443.2" cy="298.0" r="3.2" fill="#315cab" opacity="0.82"/><circle cx="433.5" cy="276.0" r="3.2" fill="#315cab" opacity="0.82"/><circle cx="622.0" cy="320.0" r="3.2" fill="#315cab" opacity="0.82"/><circle cx="449.7" cy="305.3" r="3.2" fill="#315cab" opacity="0.82"/><circle cx="466.0" cy="312.7" r="3.2" fill="#315cab" opacity="0.82"/><circle cx="563.5" cy="305.3" r="3.2" fill="#315cab" opacity="0.82"/><circle cx="261.3" cy="261.3" r="3.2" fill="#315cab" opacity="0.82"/><circle cx="433.5" cy="290.7" r="3.2" fill="#315cab" opacity="0.82"/><circle cx="368.5" cy="305.3" r="3.2" fill="#315cab" opacity="0.82"/><circle cx="401.0" cy="305.3" r="3.2" fill="#315cab" opacity="0.82"/><circle cx="433.5" cy="298.0" r="3.2" fill="#315cab" opacity="0.82"/><circle cx="310.0" cy="268.7" r="3.2" fill="#315cab" opacity="0.82"/><circle cx="193.0" cy="239.3" r="2.8" fill="#c8cfda" opacity="0.3"/><circle cx="228.8" cy="246.7" r="2.8" fill="#c8cfda" opacity="0.3"/><circle cx="170.3" cy="210.0" r="2.8" fill="#c8cfda" opacity="0.3"/><circle cx="225.5" cy="239.3" r="2.8" fill="#c8cfda" opacity="0.3"/><circle cx="245.0" cy="195.3" r="2.8" fill="#c8cfda" opacity="0.3"/><circle cx="261.3" cy="232.0" r="2.8" fill="#c8cfda" opacity="0.3"/><circle cx="206.0" cy="195.3" r="2.8" fill="#c8cfda" opacity="0.3"/><circle cx="232.0" cy="202.7" r="2.8" fill="#c8cfda" opacity="0.3"/><circle cx="514.8" cy="305.3" r="3.2" fill="#315cab" opacity="0.82"/><circle cx="433.5" cy="298.0" r="3.2" fill="#315cab" opacity="0.82"/><circle cx="417.3" cy="305.3" r="3.2" fill="#315cab" opacity="0.82"/><circle cx="391.3" cy="298.0" r="3.2" fill="#315cab" opacity="0.82"/><circle cx="433.5" cy="290.7" r="3.2" fill="#315cab" opacity="0.82"/><circle cx="589.5" cy="312.7" r="3.2" fill="#315cab" opacity="0.82"/><circle cx="433.5" cy="305.3" r="3.2" fill="#315cab" opacity="0.82"/><circle cx="459.5" cy="305.3" r="3.2" fill="#315cab" opacity="0.82"/><circle cx="433.5" cy="298.0" r="3.2" fill="#315cab" opacity="0.82"/><circle cx="644.8" cy="305.3" r="3.2" fill="#315cab" opacity="0.82"/><circle cx="677.3" cy="312.7" r="3.2" fill="#315cab" opacity="0.82"/><circle cx="514.8" cy="305.3" r="3.2" fill="#315cab" opacity="0.82"/><circle cx="287.3" cy="268.7" r="3.2" fill="#315cab" opacity="0.82"/><circle cx="271.0" cy="283.3" r="3.2" fill="#315cab" opacity="0.82"/><circle cx="271.0" cy="268.7" r="3.2" fill="#315cab" opacity="0.82"/><circle cx="232.0" cy="268.7" r="3.2" fill="#315cab" opacity="0.82"/><circle cx="254.8" cy="232.0" r="2.8" fill="#c8cfda" opacity="0.3"/><circle cx="95.5" cy="210.0" r="2.8" fill="#c8cfda" opacity="0.3"/><circle cx="433.5" cy="320.0" r="3.2" fill="#315cab" opacity="0.82"/><circle cx="488.8" cy="312.7" r="3.2" fill="#315cab" opacity="0.82"/><circle cx="498.5" cy="305.3" r="3.2" fill="#315cab" opacity="0.82"/><circle cx="531.0" cy="312.7" r="3.2" fill="#315cab" opacity="0.82"/><circle cx="271.0" cy="268.7" r="3.2" fill="#315cab" opacity="0.82"/><circle cx="232.0" cy="254.0" r="3.2" fill="#315cab" opacity="0.82"/><circle cx="180.0" cy="246.7" r="2.8" fill="#c8cfda" opacity="0.3"/><circle cx="251.5" cy="239.3" r="2.8" fill="#c8cfda" opacity="0.3"/><circle cx="238.5" cy="268.7" r="3.2" fill="#315cab" opacity="0.82"/><circle cx="222.3" cy="261.3" r="3.2" fill="#315cab" opacity="0.82"/><circle cx="293.8" cy="246.7" r="2.8" fill="#c8cfda" opacity="0.3"/><circle cx="238.5" cy="210.0" r="2.8" fill="#c8cfda" opacity="0.3"/><circle cx="417.3" cy="290.7" r="3.2" fill="#315cab" opacity="0.82"/><circle cx="693.5" cy="283.3" r="3.2" fill="#315cab" opacity="0.82"/><circle cx="105.3" cy="188.0" r="2.8" fill="#c8cfda" opacity="0.3"/><circle cx="189.8" cy="224.7" r="2.8" fill="#c8cfda" opacity="0.3"/><circle cx="241.8" cy="254.0" r="3.2" fill="#315cab" opacity="0.82"/><circle cx="310.0" cy="261.3" r="3.2" fill="#315cab" opacity="0.82"/><circle cx="433.5" cy="290.7" r="3.2" fill="#315cab" opacity="0.82"/><circle cx="303.5" cy="224.7" r="2.8" fill="#c8cfda" opacity="0.3"/><circle cx="342.5" cy="254.0" r="3.2" fill="#315cab" opacity="0.82"/><circle cx="531.0" cy="320.0" r="3.2" fill="#315cab" opacity="0.82"/><circle cx="254.8" cy="254.0" r="3.2" fill="#315cab" opacity="0.82"/><circle cx="271.0" cy="261.3" r="3.2" fill="#315cab" opacity="0.82"/><circle cx="271.0" cy="290.7" r="3.2" fill="#315cab" opacity="0.82"/><circle cx="163.8" cy="173.3" r="2.8" fill="#c8cfda" opacity="0.3"/><circle cx="206.0" cy="210.0" r="2.8" fill="#c8cfda" opacity="0.3"/><circle cx="157.3" cy="166.0" r="2.8" fill="#c8cfda" opacity="0.3"/><circle cx="189.8" cy="217.3" r="2.8" fill="#c8cfda" opacity="0.3"/><circle cx="271.0" cy="283.3" r="3.2" fill="#315cab" opacity="0.82"/><circle cx="303.5" cy="283.3" r="3.2" fill="#315cab" opacity="0.82"/><circle cx="287.3" cy="268.7" r="3.2" fill="#315cab" opacity="0.82"/><circle cx="401.0" cy="283.3" r="3.2" fill="#315cab" opacity="0.82"/><circle cx="433.5" cy="305.3" r="3.2" fill="#315cab" opacity="0.82"/><circle cx="433.5" cy="298.0" r="3.2" fill="#315cab" opacity="0.82"/><circle cx="401.0" cy="298.0" r="3.2" fill="#315cab" opacity="0.82"/><circle cx="433.5" cy="298.0" r="3.2" fill="#315cab" opacity="0.82"/><circle cx="215.8" cy="188.0" r="2.8" fill="#c8cfda" opacity="0.3"/><circle cx="163.8" cy="210.0" r="2.8" fill="#c8cfda" opacity="0.3"/><circle cx="199.5" cy="210.0" r="2.8" fill="#c8cfda" opacity="0.3"/><circle cx="115.0" cy="173.3" r="2.8" fill="#c8cfda" opacity="0.3"/><circle cx="144.3" cy="166.0" r="2.8" fill="#c8cfda" opacity="0.3"/><circle cx="189.8" cy="195.3" r="2.8" fill="#c8cfda" opacity="0.3"/><circle cx="189.8" cy="224.7" r="2.8" fill="#c8cfda" opacity="0.3"/><circle cx="189.8" cy="210.0" r="2.8" fill="#c8cfda" opacity="0.3"/><circle cx="261.3" cy="224.7" r="2.8" fill="#c8cfda" opacity="0.3"/><circle cx="248.3" cy="210.0" r="2.8" fill="#c8cfda" opacity="0.3"/><circle cx="163.8" cy="173.3" r="2.8" fill="#c8cfda" opacity="0.3"/><circle cx="254.8" cy="261.3" r="3.2" fill="#315cab" opacity="0.82"/><circle cx="287.3" cy="268.7" r="3.2" fill="#315cab" opacity="0.82"/><circle cx="180.0" cy="290.7" r="3.2" fill="#315cab" opacity="0.82"/><circle cx="180.0" cy="290.7" r="3.2" fill="#315cab" opacity="0.82"/><circle cx="498.5" cy="283.3" r="3.2" fill="#315cab" opacity="0.82"/><circle cx="417.3" cy="290.7" r="3.2" fill="#315cab" opacity="0.82"/><circle cx="433.5" cy="283.3" r="3.2" fill="#315cab" opacity="0.82"/><circle cx="427.0" cy="298.0" r="3.2" fill="#315cab" opacity="0.82"/><circle cx="303.5" cy="276.0" r="3.2" fill="#315cab" opacity="0.82"/><circle cx="287.3" cy="283.3" r="3.2" fill="#315cab" opacity="0.82"/><circle cx="303.5" cy="290.7" r="3.2" fill="#315cab" opacity="0.82"/><circle cx="254.8" cy="268.7" r="3.2" fill="#315cab" opacity="0.82"/><circle cx="303.5" cy="246.7" r="2.8" fill="#c8cfda" opacity="0.3"/><circle cx="303.5" cy="254.0" r="3.2" fill="#315cab" opacity="0.82"/><circle cx="365.3" cy="305.3" r="3.2" fill="#315cab" opacity="0.82"/><circle cx="189.8" cy="188.0" r="2.8" fill="#c8cfda" opacity="0.3"/><circle cx="215.8" cy="232.0" r="2.8" fill="#c8cfda" opacity="0.3"/><circle cx="271.0" cy="254.0" r="3.2" fill="#315cab" opacity="0.82"/><circle cx="199.5" cy="232.0" r="2.8" fill="#c8cfda" opacity="0.3"/><circle cx="258.0" cy="224.7" r="2.8" fill="#c8cfda" opacity="0.3"/><circle cx="176.8" cy="217.3" r="2.8" fill="#c8cfda" opacity="0.3"/><circle cx="261.3" cy="224.7" r="2.8" fill="#c8cfda" opacity="0.3"/><circle cx="261.3" cy="268.7" r="3.2" fill="#315cab" opacity="0.82"/><circle cx="173.5" cy="188.0" r="2.8" fill="#c8cfda" opacity="0.3"/><circle cx="238.5" cy="261.3" r="3.2" fill="#315cab" opacity="0.82"/><circle cx="254.8" cy="232.0" r="2.8" fill="#c8cfda" opacity="0.3"/><circle cx="232.0" cy="232.0" r="2.8" fill="#c8cfda" opacity="0.3"/><circle cx="264.5" cy="239.3" r="2.8" fill="#c8cfda" opacity="0.3"/><circle cx="319.8" cy="217.3" r="2.8" fill="#c8cfda" opacity="0.3"/><circle cx="118.3" cy="158.7" r="2.8" fill="#c8cfda" opacity="0.3"/><circle cx="225.5" cy="195.3" r="2.8" fill="#c8cfda" opacity="0.3"/><circle cx="209.3" cy="217.3" r="2.8" fill="#c8cfda" opacity="0.3"/><circle cx="245.0" cy="217.3" r="2.8" fill="#c8cfda" opacity="0.3"/><circle cx="202.8" cy="210.0" r="2.8" fill="#c8cfda" opacity="0.3"/><circle cx="215.8" cy="202.7" r="2.8" fill="#c8cfda" opacity="0.3"/><circle cx="401.0" cy="272.3" r="3.2" fill="#315cab" opacity="0.82"/><circle cx="433.5" cy="283.3" r="3.2" fill="#315cab" opacity="0.82"/><circle cx="336.0" cy="287.0" r="3.2" fill="#315cab" opacity="0.82"/><circle cx="440.0" cy="294.3" r="3.2" fill="#315cab" opacity="0.82"/><circle cx="271.0" cy="239.3" r="2.8" fill="#c8cfda" opacity="0.3"/><circle cx="287.3" cy="239.3" r="2.8" fill="#c8cfda" opacity="0.3"/><circle cx="209.3" cy="224.7" r="2.8" fill="#c8cfda" opacity="0.3"/><circle cx="238.5" cy="235.7" r="2.8" fill="#c8cfda" opacity="0.3"/><circle cx="115.0" cy="188.0" r="2.8" fill="#c8cfda" opacity="0.3"/><circle cx="141.0" cy="221.0" r="2.8" fill="#c8cfda" opacity="0.3"/><circle cx="173.5" cy="188.0" r="2.8" fill="#c8cfda" opacity="0.3"/><circle cx="118.3" cy="158.7" r="2.8" fill="#c8cfda" opacity="0.3"/><circle cx="271.0" cy="254.0" r="3.2" fill="#315cab" opacity="0.82"/><circle cx="199.5" cy="268.7" r="3.2" fill="#315cab" opacity="0.82"/><circle cx="303.5" cy="265.0" r="3.2" fill="#315cab" opacity="0.82"/><circle cx="254.8" cy="272.3" r="3.2" fill="#315cab" opacity="0.82"/><circle cx="176.8" cy="184.3" r="2.8" fill="#c8cfda" opacity="0.3"/><circle cx="173.5" cy="166.0" r="2.8" fill="#c8cfda" opacity="0.3"/><circle cx="189.8" cy="195.3" r="2.8" fill="#c8cfda" opacity="0.3"/><circle cx="180.0" cy="206.3" r="2.8" fill="#c8cfda" opacity="0.3"/><circle cx="277.5" cy="254.0" r="3.2" fill="#315cab" opacity="0.82"/><circle cx="433.5" cy="305.3" r="3.2" fill="#315cab" opacity="0.82"/><circle cx="232.0" cy="261.3" r="3.2" fill="#315cab" opacity="0.82"/><circle cx="297.0" cy="261.3" r="3.2" fill="#315cab" opacity="0.82"/><circle cx="336.0" cy="279.7" r="3.2" fill="#315cab" opacity="0.82"/><circle cx="531.0" cy="279.7" r="3.2" fill="#315cab" opacity="0.82"/><circle cx="417.3" cy="305.3" r="3.2" fill="#315cab" opacity="0.82"/><circle cx="368.5" cy="305.3" r="3.2" fill="#315cab" opacity="0.82"/><circle cx="433.5" cy="305.3" r="3.2" fill="#315cab" opacity="0.82"/><circle cx="167.0" cy="169.7" r="2.8" fill="#c8cfda" opacity="0.3"/><circle cx="206.0" cy="180.7" r="2.8" fill="#c8cfda" opacity="0.3"/><circle cx="134.5" cy="136.7" r="2.8" fill="#c8cfda" opacity="0.3"/><circle cx="258.0" cy="213.7" r="2.8" fill="#c8cfda" opacity="0.3"/><circle cx="173.5" cy="155.0" r="2.8" fill="#c8cfda" opacity="0.3"/><circle cx="417.3" cy="272.3" r="3.2" fill="#315cab" opacity="0.82"/><circle cx="303.5" cy="276.0" r="3.2" fill="#315cab" opacity="0.82"/><circle cx="417.3" cy="287.0" r="3.2" fill="#315cab" opacity="0.82"/><circle cx="368.5" cy="290.7" r="3.2" fill="#315cab" opacity="0.82"/><circle cx="303.5" cy="272.3" r="3.2" fill="#315cab" opacity="0.82"/><circle cx="287.3" cy="250.3" r="2.8" fill="#c8cfda" opacity="0.3"/><circle cx="271.0" cy="261.3" r="3.2" fill="#315cab" opacity="0.82"/><circle cx="264.5" cy="265.0" r="3.2" fill="#315cab" opacity="0.82"/><circle cx="531.0" cy="283.3" r="3.2" fill="#315cab" opacity="0.82"/><circle cx="498.5" cy="287.0" r="3.2" fill="#315cab" opacity="0.82"/><circle cx="563.5" cy="287.0" r="3.2" fill="#315cab" opacity="0.82"/><circle cx="430.3" cy="283.3" r="3.2" fill="#315cab" opacity="0.82"/><circle cx="199.5" cy="188.0" r="2.8" fill="#c8cfda" opacity="0.3"/><circle cx="232.0" cy="221.0" r="2.8" fill="#c8cfda" opacity="0.3"/><circle cx="189.8" cy="210.0" r="2.8" fill="#c8cfda" opacity="0.3"/><circle cx="235.3" cy="213.7" r="2.8" fill="#c8cfda" opacity="0.3"/><circle cx="150.8" cy="177.0" r="2.8" fill="#c8cfda" opacity="0.3"/><circle cx="215.8" cy="155.0" r="2.8" fill="#c8cfda" opacity="0.3"/><circle cx="163.8" cy="180.7" r="2.8" fill="#c8cfda" opacity="0.3"/><circle cx="199.5" cy="177.0" r="2.8" fill="#c8cfda" opacity="0.3"/><circle cx="261.3" cy="239.3" r="2.8" fill="#c8cfda" opacity="0.3"/><circle cx="303.5" cy="243.0" r="2.8" fill="#c8cfda" opacity="0.3"/><circle cx="303.5" cy="243.0" r="2.8" fill="#c8cfda" opacity="0.3"/><circle cx="102.0" cy="84.6" r="2.8" fill="#c8cfda" opacity="0.3"/><circle cx="160.5" cy="135.9" r="2.8" fill="#c8cfda" opacity="0.3"/><circle cx="115.0" cy="160.1" r="2.8" fill="#c8cfda" opacity="0.3"/><circle cx="173.5" cy="111.7" r="2.8" fill="#c8cfda" opacity="0.3"/><circle cx="141.0" cy="135.9" r="2.8" fill="#c8cfda" opacity="0.3"/><circle cx="303.5" cy="254.7" r="3.2" fill="#315cab" opacity="0.82"/><circle cx="401.0" cy="258.4" r="3.2" fill="#315cab" opacity="0.82"/><circle cx="397.8" cy="252.5" r="2.8" fill="#c8cfda" opacity="0.3"/><circle cx="287.3" cy="259.9" r="3.2" fill="#315cab" opacity="0.82"/><circle cx="254.8" cy="250.3" r="2.8" fill="#c8cfda" opacity="0.3"/><circle cx="222.3" cy="252.5" r="2.8" fill="#c8cfda" opacity="0.3"/><circle cx="232.0" cy="216.6" r="2.8" fill="#c8cfda" opacity="0.3"/><circle cx="271.0" cy="250.3" r="2.8" fill="#c8cfda" opacity="0.3"/><circle cx="238.5" cy="258.4" r="3.2" fill="#315cab" opacity="0.82"/><circle cx="287.3" cy="249.6" r="2.8" fill="#c8cfda" opacity="0.3"/><circle cx="222.3" cy="248.1" r="2.8" fill="#c8cfda" opacity="0.3"/><circle cx="303.5" cy="264.3" r="3.2" fill="#315cab" opacity="0.82"/><circle cx="336.0" cy="267.9" r="3.2" fill="#315cab" opacity="0.82"/><circle cx="417.3" cy="259.9" r="3.2" fill="#315cab" opacity="0.82"/><circle cx="482.3" cy="270.9" r="3.2" fill="#315cab" opacity="0.82"/><circle cx="397.8" cy="267.9" r="3.2" fill="#315cab" opacity="0.82"/><circle cx="401.0" cy="272.3" r="3.2" fill="#315cab" opacity="0.82"/><circle cx="167.0" cy="180.7" r="2.8" fill="#c8cfda" opacity="0.3"/><circle cx="254.8" cy="199.0" r="2.8" fill="#c8cfda" opacity="0.3"/><circle cx="261.3" cy="201.2" r="2.8" fill="#c8cfda" opacity="0.3"/><circle cx="189.8" cy="174.1" r="2.8" fill="#c8cfda" opacity="0.3"/><circle cx="254.8" cy="245.9" r="2.8" fill="#c8cfda" opacity="0.3"/><circle cx="287.3" cy="230.5" r="2.8" fill="#c8cfda" opacity="0.3"/><circle cx="222.3" cy="226.1" r="2.8" fill="#c8cfda" opacity="0.3"/><circle cx="261.3" cy="225.4" r="2.8" fill="#c8cfda" opacity="0.3"/><circle cx="280.8" cy="251.8" r="2.8" fill="#c8cfda" opacity="0.3"/><circle cx="352.3" cy="276.0" r="3.2" fill="#315cab" opacity="0.82"/><circle cx="319.8" cy="242.3" r="2.8" fill="#c8cfda" opacity="0.3"/><circle cx="378.3" cy="281.9" r="3.2" fill="#315cab" opacity="0.82"/><circle cx="176.8" cy="169.7" r="2.8" fill="#c8cfda" opacity="0.3"/><circle cx="167.0" cy="184.3" r="2.8" fill="#c8cfda" opacity="0.3"/><circle cx="319.8" cy="243.0" r="2.8" fill="#c8cfda" opacity="0.3"/><circle cx="222.3" cy="255.5" r="3.2" fill="#315cab" opacity="0.82"/><circle cx="232.0" cy="237.1" r="2.8" fill="#c8cfda" opacity="0.3"/><circle cx="238.5" cy="252.5" r="2.8" fill="#c8cfda" opacity="0.3"/><circle cx="303.5" cy="249.6" r="2.8" fill="#c8cfda" opacity="0.3"/><circle cx="368.5" cy="276.0" r="3.2" fill="#315cab" opacity="0.82"/><circle cx="365.3" cy="271.6" r="3.2" fill="#315cab" opacity="0.82"/><circle cx="394.5" cy="279.7" r="3.2" fill="#315cab" opacity="0.82"/><circle cx="384.8" cy="267.2" r="3.2" fill="#315cab" opacity="0.82"/><circle cx="449.7" cy="276.7" r="3.2" fill="#315cab" opacity="0.82"/><circle cx="407.5" cy="287.0" r="3.2" fill="#315cab" opacity="0.82"/><circle cx="352.3" cy="259.9" r="3.2" fill="#315cab" opacity="0.82"/><circle cx="433.5" cy="265.0" r="3.2" fill="#315cab" opacity="0.82"/><circle cx="176.8" cy="166.7" r="2.8" fill="#c8cfda" opacity="0.3"/><circle cx="157.3" cy="150.6" r="2.8" fill="#c8cfda" opacity="0.3"/><circle cx="206.0" cy="138.9" r="2.8" fill="#c8cfda" opacity="0.3"/><circle cx="206.0" cy="199.7" r="2.8" fill="#c8cfda" opacity="0.3"/><circle cx="196.3" cy="214.4" r="2.8" fill="#c8cfda" opacity="0.3"/><circle cx="352.3" cy="232.0" r="2.8" fill="#c8cfda" opacity="0.3"/><circle cx="176.8" cy="201.2" r="2.8" fill="#c8cfda" opacity="0.3"/><circle cx="238.5" cy="225.4" r="2.8" fill="#c8cfda" opacity="0.3"/><circle cx="173.5" cy="149.9" r="2.8" fill="#c8cfda" opacity="0.3"/><circle cx="173.5" cy="147.7" r="2.8" fill="#c8cfda" opacity="0.3"/><circle cx="157.3" cy="167.5" r="2.8" fill="#c8cfda" opacity="0.3"/><circle cx="170.3" cy="127.1" r="2.8" fill="#c8cfda" opacity="0.3"/><circle cx="238.5" cy="192.4" r="2.8" fill="#c8cfda" opacity="0.3"/><circle cx="319.8" cy="189.5" r="2.8" fill="#c8cfda" opacity="0.3"/><circle cx="319.8" cy="204.1" r="2.8" fill="#c8cfda" opacity="0.3"/><circle cx="238.5" cy="155.0" r="2.8" fill="#c8cfda" opacity="0.3"/><circle cx="193.0" cy="96.3" r="2.8" fill="#c8cfda" opacity="0.3"/><circle cx="141.0" cy="121.3" r="2.8" fill="#c8cfda" opacity="0.3"/><circle cx="173.5" cy="165.3" r="2.8" fill="#c8cfda" opacity="0.3"/><circle cx="157.3" cy="127.9" r="2.8" fill="#c8cfda" opacity="0.3"/><circle cx="238.5" cy="195.3" r="2.8" fill="#c8cfda" opacity="0.3"/><circle cx="232.0" cy="207.1" r="2.8" fill="#c8cfda" opacity="0.3"/><circle cx="238.5" cy="222.5" r="2.8" fill="#c8cfda" opacity="0.3"/><circle cx="238.5" cy="260.6" r="3.2" fill="#315cab" opacity="0.82"/><circle cx="199.5" cy="149.1" r="2.8" fill="#c8cfda" opacity="0.3"/><circle cx="238.5" cy="182.1" r="2.8" fill="#c8cfda" opacity="0.3"/><circle cx="189.8" cy="171.1" r="2.8" fill="#c8cfda" opacity="0.3"/><circle cx="245.0" cy="129.3" r="2.8" fill="#c8cfda" opacity="0.3"/><circle cx="189.8" cy="164.5" r="2.8" fill="#c8cfda" opacity="0.3"/><circle cx="157.3" cy="58.9" r="2.8" fill="#c8cfda" opacity="0.3"/><circle cx="287.3" cy="196.1" r="2.8" fill="#c8cfda" opacity="0.3"/><circle cx="157.3" cy="101.5" r="2.8" fill="#c8cfda" opacity="0.3"/><circle cx="102.0" cy="75.8" r="2.8" fill="#c8cfda" opacity="0.3"/><circle cx="102.0" cy="82.4" r="2.8" fill="#c8cfda" opacity="0.3"/><circle cx="163.8" cy="133.7" r="2.8" fill="#c8cfda" opacity="0.3"/><circle cx="163.8" cy="180.7" r="2.8" fill="#c8cfda" opacity="0.3"/><circle cx="163.8" cy="73.6" r="2.8" fill="#c8cfda" opacity="0.3"/><circle cx="163.8" cy="152.8" r="2.8" fill="#c8cfda" opacity="0.3"/><circle cx="147.5" cy="182.1" r="2.8" fill="#c8cfda" opacity="0.3"/><circle cx="375.0" cy="160.9" r="2.8" fill="#c8cfda" opacity="0.3"/><circle cx="271.0" cy="226.9" r="2.8" fill="#c8cfda" opacity="0.3"/><circle cx="232.0" cy="144.0" r="2.8" fill="#c8cfda" opacity="0.3"/><circle cx="180.0" cy="163.1" r="2.8" fill="#c8cfda" opacity="0.3"/><circle cx="219.0" cy="201.2" r="2.8" fill="#c8cfda" opacity="0.3"/><circle cx="219.0" cy="205.6" r="2.8" fill="#c8cfda" opacity="0.3"/><circle cx="245.0" cy="211.5" r="2.8" fill="#c8cfda" opacity="0.3"/><circle cx="303.5" cy="228.3" r="2.8" fill="#c8cfda" opacity="0.3"/><circle cx="219.0" cy="180.7" r="2.8" fill="#c8cfda" opacity="0.3"/><circle cx="134.5" cy="113.9" r="2.8" fill="#c8cfda" opacity="0.3"/><circle cx="154.0" cy="114.7" r="2.8" fill="#c8cfda" opacity="0.3"/><circle cx="141.0" cy="143.3" r="2.8" fill="#c8cfda" opacity="0.3"/><circle cx="163.8" cy="163.8" r="2.8" fill="#c8cfda" opacity="0.3"/><circle cx="157.3" cy="129.3" r="2.8" fill="#c8cfda" opacity="0.3"/><circle cx="147.5" cy="124.2" r="2.8" fill="#c8cfda" opacity="0.3"/><circle cx="167.0" cy="150.6" r="2.8" fill="#c8cfda" opacity="0.3"/><circle cx="150.8" cy="146.2" r="2.8" fill="#c8cfda" opacity="0.3"/><circle cx="157.3" cy="148.4" r="2.8" fill="#c8cfda" opacity="0.3"/><circle cx="157.3" cy="181.4" r="2.8" fill="#c8cfda" opacity="0.3"/><circle cx="186.5" cy="158.7" r="2.8" fill="#c8cfda" opacity="0.3"/><circle cx="189.8" cy="153.5" r="2.8" fill="#c8cfda" opacity="0.3"/><circle cx="189.8" cy="163.1" r="2.8" fill="#c8cfda" opacity="0.3"/><circle cx="271.0" cy="159.4" r="2.8" fill="#c8cfda" opacity="0.3"/><circle cx="186.5" cy="168.9" r="2.8" fill="#c8cfda" opacity="0.3"/><circle cx="206.0" cy="194.6" r="2.8" fill="#c8cfda" opacity="0.3"/><circle cx="193.0" cy="175.5" r="2.8" fill="#c8cfda" opacity="0.3"/><circle cx="323.0" cy="214.4" r="2.8" fill="#c8cfda" opacity="0.3"/><circle cx="336.0" cy="223.2" r="2.8" fill="#c8cfda" opacity="0.3"/><circle cx="303.5" cy="236.4" r="2.8" fill="#c8cfda" opacity="0.3"/><circle cx="287.3" cy="205.6" r="2.8" fill="#c8cfda" opacity="0.3"/><circle cx="232.0" cy="252.5" r="2.8" fill="#c8cfda" opacity="0.3"/><circle cx="222.3" cy="271.6" r="3.2" fill="#315cab" opacity="0.82"/><circle cx="232.0" cy="195.3" r="2.8" fill="#c8cfda" opacity="0.3"/><circle cx="232.0" cy="202.7" r="2.8" fill="#c8cfda" opacity="0.3"/><circle cx="232.0" cy="151.3" r="2.8" fill="#c8cfda" opacity="0.3"/><circle cx="222.3" cy="173.3" r="2.8" fill="#c8cfda" opacity="0.3"/><circle cx="219.0" cy="188.0" r="2.8" fill="#c8cfda" opacity="0.3"/><circle cx="238.5" cy="202.7" r="2.8" fill="#c8cfda" opacity="0.3"/><circle cx="245.0" cy="224.7" r="2.8" fill="#c8cfda" opacity="0.3"/><circle cx="186.5" cy="136.7" r="2.8" fill="#c8cfda" opacity="0.3"/><circle cx="167.0" cy="129.3" r="2.8" fill="#c8cfda" opacity="0.3"/><circle cx="167.0" cy="173.3" r="2.8" fill="#c8cfda" opacity="0.3"/><circle cx="150.8" cy="122.0" r="2.8" fill="#c8cfda" opacity="0.3"/><circle cx="173.5" cy="136.7" r="2.8" fill="#c8cfda" opacity="0.3"/><circle cx="232.0" cy="136.7" r="2.8" fill="#c8cfda" opacity="0.3"/><circle cx="189.8" cy="136.7" r="2.8" fill="#c8cfda" opacity="0.3"/><circle cx="173.5" cy="151.3" r="2.8" fill="#c8cfda" opacity="0.3"/><circle cx="163.8" cy="122.0" r="2.8" fill="#c8cfda" opacity="0.3"/><circle cx="163.8" cy="166.0" r="2.8" fill="#c8cfda" opacity="0.3"/><circle cx="163.8" cy="122.0" r="2.8" fill="#c8cfda" opacity="0.3"/><circle cx="303.5" cy="217.3" r="2.8" fill="#c8cfda" opacity="0.3"/><circle cx="222.3" cy="122.0" r="2.8" fill="#c8cfda" opacity="0.3"/><circle cx="245.0" cy="210.0" r="2.8" fill="#c8cfda" opacity="0.3"/><circle cx="310.0" cy="239.3" r="2.8" fill="#c8cfda" opacity="0.3"/><circle cx="258.0" cy="166.0" r="2.8" fill="#c8cfda" opacity="0.3"/><circle cx="219.0" cy="136.7" r="2.8" fill="#c8cfda" opacity="0.3"/><circle cx="238.5" cy="202.7" r="2.8" fill="#c8cfda" opacity="0.3"/><circle cx="225.5" cy="202.7" r="2.8" fill="#c8cfda" opacity="0.3"/><circle cx="115.0" cy="78.0" r="2.8" fill="#c8cfda" opacity="0.3"/><circle cx="219.0" cy="166.0" r="2.8" fill="#c8cfda" opacity="0.3"/><circle cx="202.8" cy="195.3" r="2.8" fill="#c8cfda" opacity="0.3"/><circle cx="212.5" cy="173.3" r="2.8" fill="#c8cfda" opacity="0.3"/><rect x="76" y="254" width="650" height="73.33333333333331" fill="#cc455a" fill-opacity=".14" stroke="#cc455a" stroke-width="3"/><text x="718" y="276" font-family="Arial,Helvetica,sans-serif" font-size="14" fill="#cc455a" font-weight="700" text-anchor="end">MPG 10–20</text></g><g transform="translate(415 55) scale(.76)"><text x="24" y="24" font-family="Arial,Helvetica,sans-serif" font-size="17" fill="#17233c" font-weight="700" text-anchor="start">A</text><path d="M64 42V220H322" fill="none" stroke="#17233c" stroke-width="2"/><rect x="65" y="220" width="22.8" height="0" fill="#7656aa" opacity=".88"/><text x="76.4" y="238" font-family="Arial,Helvetica,sans-serif" font-size="11" fill="#64728c" font-weight="400" text-anchor="middle">40</text><rect x="90.8" y="208.93333333333334" width="22.8" height="11.066666666666666" fill="#7656aa" opacity=".88"/><rect x="116.6" y="138.84444444444443" width="22.8" height="81.15555555555555" fill="#7656aa" opacity=".88"/><text x="128" y="238" font-family="Arial,Helvetica,sans-serif" font-size="11" fill="#64728c" font-weight="400" text-anchor="middle">80</text><rect x="142.4" y="98.26666666666668" width="22.8" height="121.73333333333332" fill="#7656aa" opacity=".88"/><rect x="168.2" y="153.6" width="22.8" height="66.4" fill="#7656aa" opacity=".88"/><text x="179.6" y="238" font-family="Arial,Helvetica,sans-serif" font-size="11" fill="#64728c" font-weight="400" text-anchor="middle">120</text><rect x="194" y="54" width="22.8" height="166" fill="#7656aa" opacity=".88"/><rect x="219.8" y="157.2888888888889" width="22.8" height="62.71111111111111" fill="#7656aa" opacity=".88"/><text x="231.20000000000002" y="238" font-family="Arial,Helvetica,sans-serif" font-size="11" fill="#64728c" font-weight="400" text-anchor="middle">160</text><rect x="245.6" y="183.11111111111111" width="22.8" height="36.888888888888886" fill="#7656aa" opacity=".88"/><rect x="271.4" y="197.86666666666667" width="22.8" height="22.133333333333333" fill="#7656aa" opacity=".88"/><text x="282.79999999999995" y="238" font-family="Arial,Helvetica,sans-serif" font-size="11" fill="#64728c" font-weight="400" text-anchor="middle">200</text><rect x="297.2" y="201.55555555555554" width="22.8" height="18.444444444444443" fill="#7656aa" opacity=".88"/><text x="193" y="260" font-family="Arial,Helvetica,sans-serif" font-size="12" fill="#17233c" font-weight="400" text-anchor="middle">Horsepower (fixed 20-unit bins)</text><text transform="translate(18 131) rotate(-90)" font-family="Arial" font-size="12" fill="#17233c" text-anchor="middle">Cars</text></g><g transform="translate(705 55) scale(.76)"><text x="24" y="24" font-family="Arial,Helvetica,sans-serif" font-size="17" fill="#17233c" font-weight="700" text-anchor="start">B</text><path d="M64 42V220H322" fill="none" stroke="#17233c" stroke-width="2"/><rect x="65" y="203.1186440677966" width="22.8" height="16.88135593220339" fill="#7656aa" opacity=".88"/><text x="76.4" y="238" font-family="Arial,Helvetica,sans-serif" font-size="11" fill="#64728c" font-weight="400" text-anchor="middle">40</text><rect x="90.8" y="54" width="22.8" height="166" fill="#7656aa" opacity=".88"/><rect x="116.6" y="177.79661016949154" width="22.8" height="42.20338983050847" fill="#7656aa" opacity=".88"/><text x="128" y="238" font-family="Arial,Helvetica,sans-serif" font-size="11" fill="#64728c" font-weight="400" text-anchor="middle">80</text><rect x="142.4" y="217.1864406779661" width="22.8" height="2.8135593220338984" fill="#7656aa" opacity=".88"/><rect x="168.2" y="217.1864406779661" width="22.8" height="2.8135593220338984" fill="#7656aa" opacity=".88"/><text x="179.6" y="238" font-family="Arial,Helvetica,sans-serif" font-size="11" fill="#64728c" font-weight="400" text-anchor="middle">120</text><rect x="194" y="220" width="22.8" height="0" fill="#7656aa" opacity=".88"/><rect x="219.8" y="220" width="22.8" height="0" fill="#7656aa" opacity=".88"/><text x="231.20000000000002" y="238" font-family="Arial,Helvetica,sans-serif" font-size="11" fill="#64728c" font-weight="400" text-anchor="middle">160</text><rect x="245.6" y="220" width="22.8" height="0" fill="#7656aa" opacity=".88"/><rect x="271.4" y="220" width="22.8" height="0" fill="#7656aa" opacity=".88"/><text x="282.79999999999995" y="238" font-family="Arial,Helvetica,sans-serif" font-size="11" fill="#64728c" font-weight="400" text-anchor="middle">200</text><rect x="297.2" y="220" width="22.8" height="0" fill="#7656aa" opacity=".88"/><text x="193" y="260" font-family="Arial,Helvetica,sans-serif" font-size="12" fill="#17233c" font-weight="400" text-anchor="middle">Horsepower (fixed 20-unit bins)</text><text transform="translate(18 131) rotate(-90)" font-family="Arial" font-size="12" fill="#17233c" text-anchor="middle">Cars</text></g></svg>